<svg width="142" height="44" viewBox="0 0 142 44" fill="none" xmlns="http://www.w3.org/2000/svg">
<path d="M140.041 11.7376C140.353 13.8536 139.096 16.3455 135.942 19.0982C132.83 21.8155 128.087 24.5861 122.023 27.2345C109.908 32.5252 92.7318 37.2354 73.3731 40.0853C54.0143 42.9352 36.2094 43.3746 23.0837 41.7997C16.5135 41.0114 11.174 39.7249 7.41023 38.02C3.59732 36.2928 1.67557 34.2688 1.36406 32.1528C1.05255 30.0367 2.3095 27.5448 5.4629 24.7921C8.57566 22.0748 13.3178 19.3042 19.3822 16.6559C31.4972 11.3652 48.6734 6.65491 68.0321 3.80503C87.3908 0.955151 105.196 0.51571 118.321 2.09061C124.892 2.87894 130.231 4.16541 133.995 5.87037C137.808 7.59758 139.73 9.62152 140.041 11.7376Z" stroke="#24CFA6" stroke-width="2"/>
</svg>
