<svg id="Layer_1" data-name="Layer 1" xmlns="http://www.w3.org/2000/svg" xmlns:xlink="http://www.w3.org/1999/xlink" viewBox="0 0 610.11 770.33"><defs><style>.cls-1{fill:url(#linear-gradient);}.cls-2,.cls-4,.cls-9{fill:#fff;}.cls-3{fill:#e28b00;}.cls-4{font-size:44.31px;font-family:BebasNeue-Regular, BebasNeue Regular;}.cls-5{letter-spacing:0em;}.cls-6{letter-spacing:0em;}.cls-7{letter-spacing:-0.04em;}.cls-8{letter-spacing:-0.03em;}.cls-9{font-size:17px;font-family:Barlow-Medium, Barlow Medium;}.cls-36,.cls-37,.cls-40,.cls-67,.cls-72,.cls-9{font-weight:500;}.cls-10{letter-spacing:-0.03em;}.cls-11{letter-spacing:0em;}.cls-12{letter-spacing:-0.01em;}.cls-13{letter-spacing:0em;}.cls-14{letter-spacing:0em;}.cls-15{letter-spacing:-0.01em;}.cls-16{fill:#2f3440;}.cls-17,.cls-37,.cls-64,.cls-66,.cls-72{font-size:12px;}.cls-17,.cls-25{font-family:Barlow-SemiBold, Barlow SemiBold;font-weight:600;}.cls-18{letter-spacing:0em;}.cls-19{letter-spacing:-0.01em;}.cls-20{letter-spacing:-0.01em;}.cls-21{letter-spacing:0em;}.cls-22{letter-spacing:0em;}.cls-23{letter-spacing:-0.01em;}.cls-24{letter-spacing:0em;}.cls-25{font-size:8.82px;}.cls-26{letter-spacing:0em;}.cls-27{letter-spacing:0.01em;}.cls-28{letter-spacing:-0.04em;}.cls-29{letter-spacing:-0.01em;}.cls-30{letter-spacing:-0.01em;}.cls-31{letter-spacing:-0.01em;}.cls-32{letter-spacing:-0.01em;}.cls-33{letter-spacing:-0.01em;}.cls-34{letter-spacing:0em;}.cls-35{letter-spacing:-0.01em;}.cls-36{font-size:14px;}.cls-36,.cls-37,.cls-40,.cls-67,.cls-72{font-family:Poppins-Medium, Poppins Medium;}.cls-38{letter-spacing:-0.03em;}.cls-39{letter-spacing:0em;}.cls-40{font-size:10px;}.cls-41{letter-spacing:0.01em;}.cls-42{letter-spacing:-0.01em;}.cls-43{letter-spacing:0em;}.cls-44{letter-spacing:-0.01em;}.cls-45{letter-spacing:0em;}.cls-46{letter-spacing:-0.02em;}.cls-47{letter-spacing:-0.02em;}.cls-48{letter-spacing:0em;}.cls-49{letter-spacing:-0.03em;}.cls-50{letter-spacing:0.02em;}.cls-51{letter-spacing:-0.03em;}.cls-52{letter-spacing:0em;}.cls-53{letter-spacing:-0.01em;}.cls-54{letter-spacing:0.03em;}.cls-55{letter-spacing:-0.01em;}.cls-56{letter-spacing:0em;}.cls-57{letter-spacing:0em;}.cls-58{letter-spacing:-0.01em;}.cls-59{letter-spacing:0.01em;}.cls-60{letter-spacing:-0.01em;}.cls-61{letter-spacing:0em;}.cls-62{letter-spacing:-0.01em;}.cls-63{letter-spacing:-0.01em;}.cls-64{font-family:Poppins-Bold, Poppins Bold;font-weight:700;}.cls-65{letter-spacing:0em;}.cls-66{font-family:Poppins-Regular, Poppins Regular;}.cls-68{letter-spacing:-0.03em;}.cls-69{letter-spacing:-0.01em;}.cls-70{letter-spacing:-0.01em;}.cls-71{letter-spacing:0.01em;}.cls-72{letter-spacing:-0.01em;}.cls-73{letter-spacing:0em;}.cls-74{letter-spacing:-0.02em;}.cls-75{letter-spacing:0.02em;}.cls-76{letter-spacing:-0.01em;}.cls-77{font-size:14.45px;font-family:MyriadPro-Regular, Myriad Pro;}</style><linearGradient id="linear-gradient" x1="296.87" y1="154.36" x2="296.87" y2="770.07" gradientTransform="translate(-165.34 759.09) rotate(-90)" gradientUnits="userSpaceOnUse"><stop offset="0" stop-color="#fff"/><stop offset="0.06" stop-color="#fff" stop-opacity="0.99"/><stop offset="0.09" stop-color="#fff" stop-opacity="0.97"/><stop offset="0.1" stop-color="#fff" stop-opacity="0.92"/><stop offset="0.12" stop-color="#fff" stop-opacity="0.85"/><stop offset="0.13" stop-color="#fff" stop-opacity="0.77"/><stop offset="0.14" stop-color="#fff" stop-opacity="0.66"/><stop offset="0.15" stop-color="#fff" stop-opacity="0.53"/><stop offset="0.15" stop-color="#fff" stop-opacity="0.39"/><stop offset="0.16" stop-color="#fff" stop-opacity="0.22"/><stop offset="0.17" stop-color="#fff" stop-opacity="0.04"/><stop offset="0.17" stop-color="#fff" stop-opacity="0"/><stop offset="0.19" stop-color="#fbf1df" stop-opacity="0.12"/><stop offset="0.23" stop-color="#f6dbb1" stop-opacity="0.31"/><stop offset="0.27" stop-color="#f1c886" stop-opacity="0.47"/><stop offset="0.32" stop-color="#edb762" stop-opacity="0.62"/><stop offset="0.37" stop-color="#eaaa43" stop-opacity="0.74"/><stop offset="0.42" stop-color="#e79e2a" stop-opacity="0.83"/><stop offset="0.49" stop-color="#e59617" stop-opacity="0.91"/><stop offset="0.57" stop-color="#e38f0a" stop-opacity="0.96"/><stop offset="0.68" stop-color="#e28c02" stop-opacity="0.99"/><stop offset="1" stop-color="#e28b00"/></linearGradient></defs><rect class="cls-1" x="-10.99" y="460.55" width="615.72" height="3.33" transform="translate(759.09 165.61) rotate(90)"/><rect class="cls-2" x="0.9" width="595.28" height="770.33"/><rect class="cls-3" y="0.26" width="595.28" height="154.36"/><rect class="cls-2" x="237.83" y="91.51" width="288.72" height="1.67"/><text class="cls-4" transform="translate(253.68 84.59)"><tspan class="cls-5">M</tspan><tspan class="cls-6" x="35.76" y="0">uhammad</tspan><tspan class="cls-7" x="226.38" y="0"> </tspan><tspan class="cls-8" x="234.18" y="0">W</tspan><tspan x="270.21" y="0">asim</tspan></text><text class="cls-9" transform="translate(307.5 113.45)"><tspan class="cls-10">W</tspan><tspan class="cls-11" x="13.82" y="0">ebsi</tspan><tspan class="cls-12" x="42.72" y="0">t</tspan><tspan x="48.24" y="0" xml:space="preserve">e  </tspan><tspan class="cls-13" x="63.97" y="0">D</tspan><tspan class="cls-14" x="75.36" y="0">e</tspan><tspan class="cls-15" x="83.87" y="0">v</tspan><tspan x="91.88" y="0">eloper</tspan></text><path d="M81.72,190.13H78.31v3.16h3.8v1H77.18v-8.76h4.74v1H78.31v2.77h3.41Z" transform="translate(0 0.26)"/><path d="M84.07,188l.9,1.35c.24.35.43.68.64,1h0c.2-.38.41-.7.62-1l.88-1.34h1.24l-2.14,3,2.21,3.25H87.15l-.92-1.42c-.25-.36-.45-.71-.67-1.09h0c-.21.38-.43.72-.66,1.09L84,194.24H82.7L84.93,191,82.8,188Z" transform="translate(0 0.26)"/><path d="M89.56,190c0-.8,0-1.45,0-2.05h1l0,1.08h0a2.47,2.47,0,0,1,2.24-1.22c1.52,0,2.66,1.28,2.66,3.19,0,2.27-1.37,3.38-2.86,3.38a2.19,2.19,0,0,1-1.93-1h0v3.42H89.56Zm1.13,1.68a3.23,3.23,0,0,0,0,.47,1.77,1.77,0,0,0,1.72,1.34c1.21,0,1.91-1,1.91-2.43,0-1.27-.66-2.34-1.87-2.34a1.82,1.82,0,0,0-1.73,1.41,1.85,1.85,0,0,0-.08.47Z" transform="translate(0 0.26)"/><path d="M97.59,191.3a2,2,0,0,0,2.16,2.19,4.15,4.15,0,0,0,1.74-.33l.2.82a5.11,5.11,0,0,1-2.09.39,2.92,2.92,0,0,1-3.1-3.17c0-1.9,1.12-3.39,3-3.39,2.06,0,2.6,1.8,2.6,3a3.17,3.17,0,0,1,0,.53Zm3.36-.82a1.64,1.64,0,0,0-1.59-1.86,1.89,1.89,0,0,0-1.75,1.86Z" transform="translate(0 0.26)"/><path d="M103.47,189.91c0-.74,0-1.38,0-2h1l0,1.23h.05a1.88,1.88,0,0,1,1.74-1.37,1.15,1.15,0,0,1,.33,0v1.07a2.29,2.29,0,0,0-.39,0,1.61,1.61,0,0,0-1.54,1.46,4.15,4.15,0,0,0-.05.54v3.35h-1.13Z" transform="translate(0 0.26)"/><path d="M109.05,186.18a.71.71,0,0,1-1.42,0,.69.69,0,0,1,.71-.71A.68.68,0,0,1,109.05,186.18Zm-1.28,8.06V188h1.15v6.29Z" transform="translate(0 0.26)"/><path d="M111.45,191.3a2,2,0,0,0,2.16,2.19,4.15,4.15,0,0,0,1.74-.33l.2.82a5.2,5.2,0,0,1-2.1.39,2.92,2.92,0,0,1-3.09-3.17c0-1.9,1.12-3.39,3-3.39,2,0,2.6,1.8,2.6,3a4.82,4.82,0,0,1,0,.53Zm3.36-.82a1.64,1.64,0,0,0-1.59-1.86,1.91,1.91,0,0,0-1.76,1.86Z" transform="translate(0 0.26)"/><path d="M117.33,189.65c0-.65,0-1.18-.06-1.7h1l.06,1h0a2.31,2.31,0,0,1,2.08-1.18c.87,0,2.22.52,2.22,2.67v3.76h-1.14v-3.63c0-1-.38-1.86-1.46-1.86a1.62,1.62,0,0,0-1.53,1.18,1.64,1.64,0,0,0-.08.53v3.78h-1.14Z" transform="translate(0 0.26)"/><path d="M129,194a4.36,4.36,0,0,1-1.81.36,3,3,0,0,1-3.13-3.21,3.19,3.19,0,0,1,3.38-3.34,3.92,3.92,0,0,1,1.58.32l-.26.89a2.59,2.59,0,0,0-1.32-.3,2.37,2.37,0,0,0,0,4.73,3.26,3.26,0,0,0,1.4-.31Z" transform="translate(0 0.26)"/><path d="M130.92,191.3a2,2,0,0,0,2.16,2.19,4.2,4.2,0,0,0,1.75-.33l.19.82a5.11,5.11,0,0,1-2.09.39,2.92,2.92,0,0,1-3.1-3.17c0-1.9,1.12-3.39,2.95-3.39,2.06,0,2.6,1.8,2.6,3,0,.23,0,.42,0,.53Zm3.36-.82a1.64,1.64,0,0,0-1.59-1.86,1.9,1.9,0,0,0-1.75,1.86Z" transform="translate(0 0.26)"/><path d="M142.24,185v7.61c0,.56,0,1.19,0,1.62h-1l0-1.09h0a2.33,2.33,0,0,1-2.14,1.23c-1.52,0-2.69-1.28-2.69-3.19,0-2.1,1.28-3.38,2.82-3.38a2.11,2.11,0,0,1,1.9,1h0V185Zm-1.15,5.5A2,2,0,0,0,141,190a1.68,1.68,0,0,0-1.65-1.33c-1.18,0-1.89,1-1.89,2.43s.63,2.33,1.86,2.33A1.73,1.73,0,0,0,141,192.1a2,2,0,0,0,.05-.5Z" transform="translate(0 0.26)"/><path d="M147.89,194.24l-2.22-8.76h1.19l1,4.43c.26,1.09.5,2.19.65,3h0c.14-.87.41-1.91.71-3l1.17-4.42h1.19l1.06,4.45c.25,1,.48,2.08.61,3h0c.18-1,.43-1.94.7-3l1.16-4.42h1.16l-2.49,8.76H152.7l-1.11-4.56a28.18,28.18,0,0,1-.57-2.86h0a27.24,27.24,0,0,1-.68,2.86l-1.25,4.56Z" transform="translate(0 0.26)"/><path d="M157.63,191.3a2,2,0,0,0,2.16,2.19,4.18,4.18,0,0,0,1.74-.33l.19.82a5.11,5.11,0,0,1-2.09.39,2.91,2.91,0,0,1-3.09-3.17c0-1.9,1.11-3.39,3-3.39,2,0,2.6,1.8,2.6,3a4.82,4.82,0,0,1,0,.53Zm3.35-.82a1.63,1.63,0,0,0-1.58-1.86,1.9,1.9,0,0,0-1.76,1.86Z" transform="translate(0 0.26)"/><path d="M163.45,194.24c0-.43.05-1.06.05-1.62V185h1.13v4h0a2.34,2.34,0,0,1,2.14-1.15c1.56,0,2.67,1.3,2.66,3.21,0,2.25-1.42,3.36-2.82,3.36a2.25,2.25,0,0,1-2.11-1.18h0l-.05,1Zm1.18-2.52a1.93,1.93,0,0,0,.06.42,1.75,1.75,0,0,0,1.71,1.33c1.2,0,1.91-1,1.91-2.41,0-1.27-.65-2.34-1.87-2.34a1.82,1.82,0,0,0-1.74,1.4,2,2,0,0,0-.07.47Z" transform="translate(0 0.26)"/><path d="M173.69,185.6a15.4,15.4,0,0,1,2.41-.19,5,5,0,0,1,3.55,1.1,4,4,0,0,1,1.23,3.14,4.65,4.65,0,0,1-1.26,3.41,5.39,5.39,0,0,1-3.87,1.26,19.82,19.82,0,0,1-2.06-.1Zm1.14,7.74a6.19,6.19,0,0,0,1.14.07,3.37,3.37,0,0,0,3.73-3.72c0-2.07-1.16-3.38-3.55-3.38a6,6,0,0,0-1.32.12Z" transform="translate(0 0.26)"/><path d="M183,191.3a2,2,0,0,0,2.16,2.19,4.15,4.15,0,0,0,1.74-.33l.2.82a5.16,5.16,0,0,1-2.1.39,2.92,2.92,0,0,1-3.09-3.17c0-1.9,1.12-3.39,3-3.39,2.06,0,2.6,1.8,2.6,3a3.17,3.17,0,0,1,0,.53Zm3.36-.82a1.64,1.64,0,0,0-1.59-1.86,1.89,1.89,0,0,0-1.75,1.86Z" transform="translate(0 0.26)"/><path d="M189.32,188l1.24,3.53c.2.58.37,1.1.5,1.62h0c.14-.52.33-1,.53-1.62l1.23-3.53h1.19l-2.47,6.29h-1.09L188.1,188Z" transform="translate(0 0.26)"/><path d="M195.64,191.3a2,2,0,0,0,2.16,2.19,4.18,4.18,0,0,0,1.74-.33l.19.82a5.11,5.11,0,0,1-2.09.39,2.91,2.91,0,0,1-3.09-3.17c0-1.9,1.11-3.39,2.95-3.39,2.05,0,2.6,1.8,2.6,3a4.82,4.82,0,0,1,0,.53Zm3.35-.82a1.63,1.63,0,0,0-1.58-1.86,1.9,1.9,0,0,0-1.76,1.86Z" transform="translate(0 0.26)"/><path d="M201.51,185h1.15v9.23h-1.15Z" transform="translate(0 0.26)"/><path d="M210.28,191a3.08,3.08,0,0,1-3.14,3.34,3,3,0,0,1-3-3.23,3.07,3.07,0,0,1,3.12-3.34A3,3,0,0,1,210.28,191Zm-5,.07c0,1.38.8,2.42,1.91,2.42s1.92-1,1.92-2.45c0-1.06-.54-2.42-1.89-2.42S205.28,189.91,205.28,191.11Z" transform="translate(0 0.26)"/><path d="M211.72,190c0-.8,0-1.45-.05-2.05h1l.06,1.08h0a2.47,2.47,0,0,1,2.24-1.22c1.52,0,2.66,1.28,2.66,3.19,0,2.27-1.38,3.38-2.86,3.38a2.19,2.19,0,0,1-1.93-1h0v3.42h-1.13Zm1.13,1.68a3.23,3.23,0,0,0,.05.47,1.77,1.77,0,0,0,1.72,1.34c1.21,0,1.91-1,1.91-2.43,0-1.27-.66-2.34-1.87-2.34a1.82,1.82,0,0,0-1.73,1.41,1.85,1.85,0,0,0-.08.47Z" transform="translate(0 0.26)"/><path d="M219.75,191.3a2,2,0,0,0,2.16,2.19,4.15,4.15,0,0,0,1.74-.33l.2.82a5.16,5.16,0,0,1-2.1.39,2.92,2.92,0,0,1-3.09-3.17c0-1.9,1.12-3.39,3-3.39,2.06,0,2.6,1.8,2.6,3a3.17,3.17,0,0,1,0,.53Zm3.36-.82a1.64,1.64,0,0,0-1.59-1.86,1.89,1.89,0,0,0-1.75,1.86Z" transform="translate(0 0.26)"/><path d="M225.63,189.91c0-.74,0-1.38,0-2h1l0,1.23h0a1.88,1.88,0,0,1,1.74-1.37,1.15,1.15,0,0,1,.33,0v1.07a2.29,2.29,0,0,0-.39,0,1.61,1.61,0,0,0-1.54,1.46,4.15,4.15,0,0,0-.05.54v3.35h-1.13Z" transform="translate(0 0.26)"/><path d="M236.12,194.24l-.09-.79h0a2.36,2.36,0,0,1-1.93.93,1.79,1.79,0,0,1-1.92-1.8c0-1.52,1.35-2.36,3.78-2.34v-.13a1.3,1.3,0,0,0-1.43-1.46,3.08,3.08,0,0,0-1.63.47l-.26-.76a4,4,0,0,1,2.06-.55c1.93,0,2.4,1.31,2.4,2.57v2.35a8.69,8.69,0,0,0,.1,1.51ZM236,191c-1.25,0-2.66.2-2.66,1.42a1,1,0,0,0,1.07,1.09,1.47,1.47,0,0,0,1.59-1.42Z" transform="translate(0 0.26)"/><path d="M240.23,186.14V188h1.64v.87h-1.64v3.39c0,.78.22,1.23.86,1.23a2.49,2.49,0,0,0,.66-.08l.05.86a2.82,2.82,0,0,1-1,.15,1.59,1.59,0,0,1-1.24-.48,2.37,2.37,0,0,1-.44-1.64v-3.43h-1V188h1v-1.51Z" transform="translate(0 0.26)"/><path d="M247.08,185.48v8.76H246v-8.76Z" transform="translate(0 0.26)"/><path d="M249.15,189.65c0-.65,0-1.18-.06-1.7h1l.06,1h0a2.15,2.15,0,0,1,2-1.15,1.85,1.85,0,0,1,1.78,1.26h0a2.49,2.49,0,0,1,.7-.82,2.12,2.12,0,0,1,1.39-.44c.83,0,2.07.54,2.07,2.73v3.7H257v-3.56c0-1.21-.44-1.94-1.36-1.94a1.5,1.5,0,0,0-1.36,1,2,2,0,0,0-.09.57v3.89h-1.12v-3.77c0-1-.44-1.73-1.31-1.73a1.58,1.58,0,0,0-1.42,1.15,1.67,1.67,0,0,0-.09.55v3.8h-1.11Z" transform="translate(0 0.26)"/><path d="M263.47,194.24l-.09-.79h0a2.35,2.35,0,0,1-1.92.93,1.79,1.79,0,0,1-1.93-1.8c0-1.52,1.36-2.36,3.79-2.34v-.13a1.3,1.3,0,0,0-1.43-1.46,3.09,3.09,0,0,0-1.64.47l-.26-.76a4,4,0,0,1,2.07-.55c1.92,0,2.39,1.31,2.39,2.57v2.35a8.69,8.69,0,0,0,.1,1.51ZM263.3,191c-1.25,0-2.66.2-2.66,1.42a1,1,0,0,0,1.08,1.09,1.56,1.56,0,0,0,1.52-1,1.19,1.19,0,0,0,.06-.37Z" transform="translate(0 0.26)"/><path d="M271.67,188c0,.45-.05,1-.05,1.73v3.65a3.61,3.61,0,0,1-.89,2.87,3.33,3.33,0,0,1-2.29.76,4.06,4.06,0,0,1-2.1-.52l.29-.87a3.58,3.58,0,0,0,1.85.49c1.17,0,2-.61,2-2.2v-.7h0a2.24,2.24,0,0,1-2,1.06,2.82,2.82,0,0,1-2.68-3.07c0-2.13,1.39-3.34,2.83-3.34a2.09,2.09,0,0,1,2,1.09h0l.05-1Zm-1.18,2.48a1.73,1.73,0,0,0-.06-.52,1.66,1.66,0,0,0-1.6-1.21c-1.1,0-1.88.93-1.88,2.38,0,1.24.63,2.26,1.86,2.26a1.67,1.67,0,0,0,1.59-1.17,2.1,2.1,0,0,0,.09-.61Z" transform="translate(0 0.26)"/><path d="M274.72,186.18a.71.71,0,0,1-1.42,0,.69.69,0,0,1,.71-.71A.68.68,0,0,1,274.72,186.18Zm-1.28,8.06V188h1.15v6.29Z" transform="translate(0 0.26)"/><path d="M276.48,189.65c0-.65,0-1.18-.05-1.7h1l.06,1h0a2.31,2.31,0,0,1,2.08-1.18c.87,0,2.22.52,2.22,2.67v3.76H280.7v-3.63c0-1-.38-1.86-1.46-1.86a1.62,1.62,0,0,0-1.53,1.18,1.41,1.41,0,0,0-.08.53v3.78h-1.15Z" transform="translate(0 0.26)"/><path d="M283.7,189.65c0-.65,0-1.18-.05-1.7h1l.05,1h0a2.15,2.15,0,0,1,2-1.15,1.88,1.88,0,0,1,1.79,1.26h0a2.61,2.61,0,0,1,.7-.82,2.14,2.14,0,0,1,1.39-.44c.84,0,2.07.54,2.07,2.73v3.7h-1.12v-3.56c0-1.21-.44-1.94-1.36-1.94a1.47,1.47,0,0,0-1.35,1,1.7,1.7,0,0,0-.09.57v3.89h-1.12v-3.77c0-1-.44-1.73-1.32-1.73a1.55,1.55,0,0,0-1.41,1.15,1.45,1.45,0,0,0-.09.55v3.8H283.7Z" transform="translate(0 0.26)"/><path d="M298,194.24l-.09-.79h0a2.34,2.34,0,0,1-1.92.93,1.79,1.79,0,0,1-1.92-1.8c0-1.52,1.35-2.36,3.78-2.34v-.13a1.3,1.3,0,0,0-1.43-1.46,3.09,3.09,0,0,0-1.64.47l-.26-.76a4,4,0,0,1,2.07-.55c1.92,0,2.39,1.31,2.39,2.57v2.35a9.8,9.8,0,0,0,.1,1.51Zm-.16-3.21c-1.25,0-2.67.2-2.67,1.42a1,1,0,0,0,1.08,1.09,1.56,1.56,0,0,0,1.52-1,1.21,1.21,0,0,0,.07-.37Z" transform="translate(0 0.26)"/><path d="M301.94,190.83h0c.16-.22.38-.49.56-.71l1.85-2.17h1.38l-2.43,2.59,2.76,3.7h-1.39l-2.17-3-.58.65v2.36h-1.13V185h1.13Z" transform="translate(0 0.26)"/><path d="M307.54,191.3a2,2,0,0,0,2.16,2.19,4.15,4.15,0,0,0,1.74-.33l.2.82a5.2,5.2,0,0,1-2.1.39,2.92,2.92,0,0,1-3.09-3.17c0-1.9,1.12-3.39,2.95-3.39,2.05,0,2.6,1.8,2.6,3a4.82,4.82,0,0,1,0,.53Zm3.35-.82a1.62,1.62,0,0,0-1.58-1.86,1.9,1.9,0,0,0-1.76,1.86Z" transform="translate(0 0.26)"/><path d="M313.42,189.91c0-.74,0-1.38-.06-2h1l0,1.23h.06a1.88,1.88,0,0,1,1.74-1.37,1,1,0,0,1,.32,0v1.07a2.13,2.13,0,0,0-.39,0,1.6,1.6,0,0,0-1.53,1.46,2.92,2.92,0,0,0-.05.54v3.35h-1.13Z" transform="translate(0 0.26)"/><path d="M316.24,195.84a20.18,20.18,0,0,0,.78-3.11l1.27-.13a16,16,0,0,1-1.23,3.16Z" transform="translate(0 0.26)"/><path d="M322.27,193.07a3,3,0,0,0,1.51.46c.83,0,1.22-.42,1.22-.94s-.33-.84-1.17-1.16c-1.13-.4-1.66-1-1.66-1.78a1.93,1.93,0,0,1,2.17-1.84,3.11,3.11,0,0,1,1.54.39l-.28.83a2.44,2.44,0,0,0-1.29-.37c-.68,0-1.05.39-1.05.86s.37.76,1.19,1.07c1.09.41,1.65,1,1.65,1.9,0,1.1-.85,1.88-2.35,1.88a3.59,3.59,0,0,1-1.77-.43Z" transform="translate(0 0.26)"/><path d="M327.57,190c0-.8,0-1.45-.05-2.05h1l.05,1.08h0a2.44,2.44,0,0,1,2.23-1.22c1.52,0,2.67,1.28,2.67,3.19,0,2.27-1.38,3.38-2.86,3.38a2.21,2.21,0,0,1-1.94-1h0v3.42h-1.13Zm1.13,1.68a2.23,2.23,0,0,0,.06.47,1.75,1.75,0,0,0,1.71,1.34c1.21,0,1.91-1,1.91-2.43,0-1.27-.66-2.34-1.87-2.34a1.82,1.82,0,0,0-1.73,1.41,1.85,1.85,0,0,0-.08.47Z" transform="translate(0 0.26)"/><path d="M335.61,191.3a2,2,0,0,0,2.15,2.19,4.2,4.2,0,0,0,1.75-.33l.19.82a5.11,5.11,0,0,1-2.09.39,2.92,2.92,0,0,1-3.1-3.17c0-1.9,1.12-3.39,3-3.39,2,0,2.6,1.8,2.6,3a4.82,4.82,0,0,1,0,.53Zm3.35-.82a1.63,1.63,0,0,0-1.58-1.86,1.9,1.9,0,0,0-1.76,1.86Z" transform="translate(0 0.26)"/><path d="M346,194a4.36,4.36,0,0,1-1.81.36,3,3,0,0,1-3.13-3.21,3.19,3.19,0,0,1,3.38-3.34,3.92,3.92,0,0,1,1.58.32l-.26.89a2.59,2.59,0,0,0-1.32-.3,2.37,2.37,0,0,0,0,4.73,3.26,3.26,0,0,0,1.4-.31Z" transform="translate(0 0.26)"/><path d="M348.58,186.18a.71.71,0,0,1-1.42,0,.7.7,0,0,1,.72-.71A.67.67,0,0,1,348.58,186.18Zm-1.27,8.06V188h1.14v6.29Z" transform="translate(0 0.26)"/><path d="M353.83,194.24l-.09-.79h0a2.34,2.34,0,0,1-1.92.93,1.79,1.79,0,0,1-1.93-1.8c0-1.52,1.36-2.36,3.79-2.34v-.13a1.3,1.3,0,0,0-1.43-1.46,3.09,3.09,0,0,0-1.64.47l-.26-.76a4,4,0,0,1,2.07-.55c1.92,0,2.39,1.31,2.39,2.57v2.35a8.69,8.69,0,0,0,.1,1.51Zm-.17-3.21c-1.24,0-2.66.2-2.66,1.42a1,1,0,0,0,1.08,1.09,1.56,1.56,0,0,0,1.52-1,1.19,1.19,0,0,0,.06-.37Z" transform="translate(0 0.26)"/><path d="M356.61,185h1.15v9.23h-1.15Z" transform="translate(0 0.26)"/><path d="M361,186.18a.71.71,0,0,1-1.42,0,.69.69,0,0,1,.71-.71A.68.68,0,0,1,361,186.18Zm-1.28,8.06V188h1.15v6.29Z" transform="translate(0 0.26)"/><path d="M362,193.58l2.85-3.71c.27-.33.53-.63.82-1v0h-3.41V188h4.8l0,.71-2.8,3.66c-.26.35-.52.66-.81,1v0h3.68v.91H362Z" transform="translate(0 0.26)"/><path d="M369.56,186.18a.67.67,0,0,1-.73.7.68.68,0,0,1-.69-.7.7.7,0,0,1,.72-.71A.67.67,0,0,1,369.56,186.18Zm-1.27,8.06V188h1.14v6.29Z" transform="translate(0 0.26)"/><path d="M371.33,189.65c0-.65,0-1.18-.05-1.7h1l.07,1h0a2.32,2.32,0,0,1,2.08-1.18c.87,0,2.23.52,2.23,2.67v3.76h-1.15v-3.63c0-1-.37-1.86-1.45-1.86a1.7,1.7,0,0,0-1.62,1.71v3.78h-1.14Z" transform="translate(0 0.26)"/><path d="M384,188c0,.45-.06,1-.06,1.73v3.65a3.61,3.61,0,0,1-.89,2.87,3.31,3.31,0,0,1-2.29.76,4,4,0,0,1-2.09-.52l.28-.87a3.58,3.58,0,0,0,1.85.49c1.17,0,2-.61,2-2.2v-.7h0a2.24,2.24,0,0,1-2,1.06,2.82,2.82,0,0,1-2.68-3.07c0-2.13,1.39-3.34,2.83-3.34a2.1,2.1,0,0,1,2,1.09h0l0-1Zm-1.19,2.48a1.73,1.73,0,0,0-.06-.52,1.66,1.66,0,0,0-1.6-1.21c-1.09,0-1.87.93-1.87,2.38,0,1.24.62,2.26,1.86,2.26a1.66,1.66,0,0,0,1.58-1.17,1.81,1.81,0,0,0,.09-.61Z" transform="translate(0 0.26)"/><path d="M389.84,186.18a.67.67,0,0,1-.73.7.68.68,0,0,1-.69-.7.7.7,0,0,1,.72-.71A.67.67,0,0,1,389.84,186.18Zm-1.27,8.06V188h1.14v6.29Z" transform="translate(0 0.26)"/><path d="M391.61,189.65c0-.65,0-1.18-.05-1.7h1l.07,1h0a2.32,2.32,0,0,1,2.08-1.18c.87,0,2.23.52,2.23,2.67v3.76h-1.15v-3.63c0-1-.37-1.86-1.45-1.86a1.7,1.7,0,0,0-1.62,1.71v3.78h-1.14Z" transform="translate(0 0.26)"/><path d="M402.75,185.48v3.67H407v-3.67h1.14v8.76H407v-4.11h-4.24v4.11h-1.13v-8.76Z" transform="translate(0 0.26)"/><path d="M411.76,186.44h-2.67v-1h6.49v1H412.9v7.8h-1.14Z" transform="translate(0 0.26)"/><path d="M423.94,190.39c-.06-1.22-.14-2.69-.13-3.78h0c-.3,1-.66,2.12-1.1,3.33l-1.55,4.25h-.86L418.84,190c-.41-1.24-.76-2.37-1-3.41h0c0,1.09-.09,2.56-.16,3.87l-.24,3.76h-1.08l.61-8.76h1.45l1.49,4.24c.37,1.08.66,2,.89,2.95h0c.23-.89.54-1.85.93-2.95l1.56-4.24h1.44l.55,8.76h-1.11Z" transform="translate(0 0.26)"/><path d="M427,185.48h1.13v7.81h3.74v1H427Z" transform="translate(0 0.26)"/><path d="M432.36,195.84a18.12,18.12,0,0,0,.78-3.11l1.28-.13a15.4,15.4,0,0,1-1.24,3.16Z" transform="translate(0 0.26)"/><path d="M444.71,194a5.71,5.71,0,0,1-2.31.41,4.09,4.09,0,0,1-4.33-4.43,4.36,4.36,0,0,1,4.58-4.6,4.65,4.65,0,0,1,2.08.39l-.28.92a4.08,4.08,0,0,0-1.76-.37c-2.06,0-3.42,1.32-3.42,3.62a3.18,3.18,0,0,0,3.36,3.52,4.58,4.58,0,0,0,1.85-.36Z" transform="translate(0 0.26)"/><path d="M446,192.86a4,4,0,0,0,2,.58c1.16,0,1.84-.62,1.84-1.5s-.47-1.29-1.66-1.74c-1.43-.51-2.31-1.25-2.31-2.49s1.13-2.37,2.84-2.37a3.87,3.87,0,0,1,1.93.43l-.31.92a3.44,3.44,0,0,0-1.66-.42c-1.2,0-1.66.72-1.66,1.31,0,.82.54,1.23,1.75,1.69,1.48.58,2.23,1.29,2.23,2.58s-1,2.52-3.07,2.52a4.55,4.55,0,0,1-2.23-.56Z" transform="translate(0 0.26)"/><path d="M452.38,192.86a4,4,0,0,0,2,.58c1.16,0,1.84-.62,1.84-1.5s-.47-1.29-1.66-1.74c-1.43-.51-2.31-1.25-2.31-2.49s1.13-2.37,2.83-2.37a3.88,3.88,0,0,1,1.94.43l-.31.92a3.44,3.44,0,0,0-1.66-.42c-1.2,0-1.66.72-1.66,1.31,0,.82.54,1.23,1.75,1.69,1.48.58,2.23,1.29,2.23,2.58s-1,2.52-3.07,2.52a4.55,4.55,0,0,1-2.23-.56Z" transform="translate(0 0.26)"/><path d="M458.17,195.84a20.18,20.18,0,0,0,.78-3.11l1.27-.13a16,16,0,0,1-1.23,3.16Z" transform="translate(0 0.26)"/><path d="M467.84,194.24l-.09-.79h0a2.35,2.35,0,0,1-1.92.93,1.79,1.79,0,0,1-1.93-1.8c0-1.52,1.35-2.36,3.79-2.34v-.13a1.3,1.3,0,0,0-1.43-1.46,3.09,3.09,0,0,0-1.64.47l-.26-.76a4,4,0,0,1,2.06-.55c1.93,0,2.4,1.31,2.4,2.57v2.35a8.69,8.69,0,0,0,.1,1.51Zm-.17-3.21c-1.25,0-2.66.2-2.66,1.42a1,1,0,0,0,1.07,1.09,1.59,1.59,0,0,0,1.53-1,1.19,1.19,0,0,0,.06-.37Z" transform="translate(0 0.26)"/><path d="M470.62,189.65c0-.65,0-1.18-.05-1.7h1l.07,1h0a2.32,2.32,0,0,1,2.08-1.18c.88,0,2.23.52,2.23,2.67v3.76h-1.15v-3.63c0-1-.37-1.86-1.45-1.86a1.64,1.64,0,0,0-1.54,1.18,1.66,1.66,0,0,0-.07.53v3.78h-1.15Z" transform="translate(0 0.26)"/><path d="M483.27,185v7.61c0,.56,0,1.19.05,1.62h-1l-.06-1.09h0a2.33,2.33,0,0,1-2.15,1.23c-1.52,0-2.69-1.28-2.69-3.19,0-2.1,1.29-3.38,2.82-3.38a2.1,2.1,0,0,1,1.9,1h0V185Zm-1.14,5.5a2.61,2.61,0,0,0-.05-.48,1.69,1.69,0,0,0-1.66-1.33c-1.18,0-1.88,1-1.88,2.43s.62,2.33,1.86,2.33a1.73,1.73,0,0,0,1.68-1.36,2.65,2.65,0,0,0,.05-.5Z" transform="translate(0 0.26)"/><path d="M489.76,185.48h1.13v5.86c0,2.33-1.14,3-2.65,3a3.82,3.82,0,0,1-1.21-.2l.17-.93a2.69,2.69,0,0,0,.95.17c1,0,1.61-.45,1.61-2.17Z" transform="translate(0 0.26)"/><path d="M496.22,194.24l-.09-.79h0a2.36,2.36,0,0,1-1.93.93,1.79,1.79,0,0,1-1.92-1.8c0-1.52,1.35-2.36,3.78-2.34v-.13a1.3,1.3,0,0,0-1.43-1.46,3.08,3.08,0,0,0-1.63.47l-.26-.76a3.93,3.93,0,0,1,2.06-.55c1.93,0,2.39,1.31,2.39,2.57v2.35a8.62,8.62,0,0,0,.11,1.51Zm-.17-3.21c-1.25,0-2.67.2-2.67,1.42a1,1,0,0,0,1.08,1.09,1.56,1.56,0,0,0,1.52-1,1.21,1.21,0,0,0,.07-.37Z" transform="translate(0 0.26)"/><path d="M499.34,188l1.23,3.53a16.48,16.48,0,0,1,.51,1.62h0c.14-.52.32-1,.53-1.62l1.22-3.53h1.2l-2.47,6.29h-1.09L498.12,188Z" transform="translate(0 0.26)"/><path d="M508.58,194.24l-.09-.79h0a2.35,2.35,0,0,1-1.92.93,1.79,1.79,0,0,1-1.93-1.8c0-1.52,1.36-2.36,3.79-2.34v-.13a1.3,1.3,0,0,0-1.43-1.46,3.09,3.09,0,0,0-1.64.47l-.26-.76a4,4,0,0,1,2.07-.55c1.92,0,2.39,1.31,2.39,2.57v2.35a8.69,8.69,0,0,0,.1,1.51Zm-.17-3.21c-1.24,0-2.66.2-2.66,1.42a1,1,0,0,0,1.08,1.09,1.56,1.56,0,0,0,1.52-1,1.19,1.19,0,0,0,.06-.37Z" transform="translate(0 0.26)"/><path d="M511.25,192.86a3.88,3.88,0,0,0,2,.58c1.16,0,1.84-.62,1.84-1.5s-.47-1.29-1.65-1.74c-1.43-.51-2.32-1.25-2.32-2.49s1.13-2.37,2.84-2.37a3.87,3.87,0,0,1,1.93.43l-.31.92a3.41,3.41,0,0,0-1.66-.42c-1.2,0-1.65.72-1.65,1.31,0,.82.53,1.23,1.74,1.69,1.48.58,2.23,1.29,2.23,2.58s-1,2.52-3.06,2.52a4.56,4.56,0,0,1-2.24-.56Z" transform="translate(0 0.26)"/><path d="M520.49,190.3v.85h-3.21v-.85Z" transform="translate(0 0.26)"/><path d="M84.12,209a4.32,4.32,0,0,1-1.81.36,3,3,0,0,1-3.13-3.21,3.2,3.2,0,0,1,3.38-3.34,4,4,0,0,1,1.59.32l-.26.89a2.66,2.66,0,0,0-1.33-.3,2.37,2.37,0,0,0,0,4.73,3.26,3.26,0,0,0,1.4-.31Z" transform="translate(0 0.26)"/><path d="M85.46,204.91c0-.74,0-1.38,0-2h1l0,1.23h0a1.88,1.88,0,0,1,1.74-1.37,1.15,1.15,0,0,1,.33,0v1.07a2.29,2.29,0,0,0-.39,0,1.61,1.61,0,0,0-1.54,1.46,4.15,4.15,0,0,0,0,.54v3.35H85.46Z" transform="translate(0 0.26)"/><path d="M91,201.18a.71.71,0,0,1-1.42,0,.69.69,0,0,1,.71-.71A.68.68,0,0,1,91,201.18Zm-1.28,8.06V203h1.15v6.29Z" transform="translate(0 0.26)"/><path d="M92.8,205c0-.8,0-1.45,0-2.05h1l0,1.08h0a2.46,2.46,0,0,1,2.23-1.22c1.52,0,2.67,1.28,2.67,3.19,0,2.27-1.38,3.38-2.86,3.38a2.22,2.22,0,0,1-1.94-1h0v3.42H92.8Zm1.13,1.68a2.23,2.23,0,0,0,.06.47,1.75,1.75,0,0,0,1.71,1.34c1.21,0,1.91-1,1.91-2.43,0-1.27-.66-2.34-1.87-2.34A1.82,1.82,0,0,0,94,205.13a1.85,1.85,0,0,0-.08.47Z" transform="translate(0 0.26)"/><path d="M101.58,201.14V203h1.64v.87h-1.64v3.39c0,.78.22,1.23.86,1.23a2.44,2.44,0,0,0,.66-.08l.05.86a2.82,2.82,0,0,1-1,.15,1.59,1.59,0,0,1-1.24-.48,2.37,2.37,0,0,1-.44-1.64v-3.43h-1V203h1v-1.51Z" transform="translate(0 0.26)"/><path d="M104.19,208.56a.76.76,0,0,1,.78-.81.75.75,0,0,1,.77.81.78.78,0,1,1-1.55,0Z" transform="translate(0 0.26)"/><path d="M114.49,205.13h-3.41v3.16h3.8v1H110v-8.76h4.73v1h-3.6v2.77h3.41Z" transform="translate(0 0.26)"/><path d="M116.84,203l.9,1.35c.23.35.43.68.63,1h0c.21-.38.42-.7.63-1l.88-1.34h1.24L119,206l2.21,3.25h-1.3l-.92-1.42c-.25-.36-.46-.71-.68-1.09h0c-.21.38-.43.72-.67,1.09l-.91,1.42h-1.26L117.7,206,115.57,203Z" transform="translate(0 0.26)"/><path d="M122.33,205c0-.8,0-1.45-.06-2.05h1l0,1.08h0a2.47,2.47,0,0,1,2.24-1.22c1.52,0,2.66,1.28,2.66,3.19,0,2.27-1.38,3.38-2.86,3.38a2.22,2.22,0,0,1-1.94-1h0v3.42h-1.13Zm1.13,1.68a2.26,2.26,0,0,0,.05.47,1.77,1.77,0,0,0,1.72,1.34c1.2,0,1.91-1,1.91-2.43,0-1.27-.67-2.34-1.88-2.34a1.81,1.81,0,0,0-1.72,1.41,1.85,1.85,0,0,0-.08.47Z" transform="translate(0 0.26)"/><path d="M130.36,206.3a2,2,0,0,0,2.16,2.19,4.15,4.15,0,0,0,1.74-.33l.19.82a5.11,5.11,0,0,1-2.09.39,2.91,2.91,0,0,1-3.09-3.17c0-1.9,1.12-3.39,2.95-3.39,2.05,0,2.6,1.8,2.6,3a4.82,4.82,0,0,1,0,.53Zm3.35-.82a1.63,1.63,0,0,0-1.58-1.86,1.9,1.9,0,0,0-1.76,1.86Z" transform="translate(0 0.26)"/><path d="M136.24,204.91c0-.74,0-1.38-.06-2h1l0,1.23h.06a1.88,1.88,0,0,1,1.74-1.37,1,1,0,0,1,.32,0v1.07a2.13,2.13,0,0,0-.39,0,1.6,1.6,0,0,0-1.53,1.46,2.92,2.92,0,0,0,0,.54v3.35h-1.13Z" transform="translate(0 0.26)"/><path d="M142.18,201.14V203h1.63v.87h-1.63v3.39c0,.78.22,1.23.85,1.23a2.58,2.58,0,0,0,.67-.08l.05.86a2.82,2.82,0,0,1-1,.15,1.59,1.59,0,0,1-1.24-.48,2.37,2.37,0,0,1-.44-1.64v-3.43h-1V203h1v-1.51Z" transform="translate(0 0.26)"/><path d="M149.13,201.18a.71.71,0,0,1-1.42,0,.7.7,0,0,1,.72-.71A.67.67,0,0,1,149.13,201.18Zm-1.27,8.06V203H149v6.29Z" transform="translate(0 0.26)"/><path d="M150.9,204.65c0-.65,0-1.18-.05-1.7h1l.07,1h0a2.31,2.31,0,0,1,2.08-1.18c.87,0,2.22.52,2.22,2.67v3.76h-1.14v-3.63c0-1-.38-1.86-1.46-1.86a1.7,1.7,0,0,0-1.61,1.71v3.78H150.9Z" transform="translate(0 0.26)"/><path d="M160.87,204.91c0-.74,0-1.38-.05-2h1l0,1.23h0a1.88,1.88,0,0,1,1.74-1.37,1.15,1.15,0,0,1,.33,0v1.07a2.29,2.29,0,0,0-.39,0,1.61,1.61,0,0,0-1.54,1.46,4.15,4.15,0,0,0-.05.54v3.35h-1.13Z" transform="translate(0 0.26)"/><path d="M165.63,206.3a2,2,0,0,0,2.16,2.19,4.18,4.18,0,0,0,1.74-.33l.19.82a5.11,5.11,0,0,1-2.09.39,2.91,2.91,0,0,1-3.09-3.17c0-1.9,1.11-3.39,3-3.39,2,0,2.6,1.8,2.6,3a4.82,4.82,0,0,1,0,.53Zm3.35-.82a1.63,1.63,0,0,0-1.58-1.86,1.9,1.9,0,0,0-1.76,1.86Z" transform="translate(0 0.26)"/><path d="M171.35,208.07a3,3,0,0,0,1.51.46c.83,0,1.22-.42,1.22-.94s-.33-.84-1.17-1.16c-1.13-.4-1.67-1-1.67-1.78a1.94,1.94,0,0,1,2.18-1.84,3.11,3.11,0,0,1,1.54.39l-.28.83a2.44,2.44,0,0,0-1.29-.37c-.68,0-1,.39-1,.86s.37.76,1.19,1.07c1.09.41,1.65,1,1.65,1.9,0,1.1-.86,1.88-2.35,1.88a3.59,3.59,0,0,1-1.77-.43Z" transform="translate(0 0.26)"/><path d="M176.65,205c0-.8,0-1.45-.05-2.05h1l.05,1.08h0a2.47,2.47,0,0,1,2.24-1.22c1.52,0,2.67,1.28,2.67,3.19,0,2.27-1.38,3.38-2.86,3.38a2.21,2.21,0,0,1-1.94-1h0v3.42h-1.13Zm1.13,1.68a3.23,3.23,0,0,0,.05.47,1.77,1.77,0,0,0,1.72,1.34c1.21,0,1.91-1,1.91-2.43,0-1.27-.66-2.34-1.87-2.34a1.82,1.82,0,0,0-1.73,1.41,1.85,1.85,0,0,0-.08.47Z" transform="translate(0 0.26)"/><path d="M189.74,206a3.07,3.07,0,0,1-3.13,3.34,3,3,0,0,1-3-3.23,3.07,3.07,0,0,1,3.12-3.34A3,3,0,0,1,189.74,206Zm-5,.07c0,1.38.79,2.42,1.91,2.42s1.91-1,1.91-2.45c0-1.06-.53-2.42-1.88-2.42S184.75,204.91,184.75,206.11Z" transform="translate(0 0.26)"/><path d="M191.19,204.65c0-.65,0-1.18-.06-1.7h1l.06,1h0a2.31,2.31,0,0,1,2.08-1.18c.87,0,2.22.52,2.22,2.67v3.76H195.4v-3.63c0-1-.38-1.86-1.46-1.86a1.62,1.62,0,0,0-1.53,1.18,1.64,1.64,0,0,0-.08.53v3.78h-1.14Z" transform="translate(0 0.26)"/><path d="M198.24,208.07a3,3,0,0,0,1.51.46c.83,0,1.22-.42,1.22-.94s-.32-.84-1.17-1.16c-1.13-.4-1.66-1-1.66-1.78a1.94,1.94,0,0,1,2.17-1.84,3.12,3.12,0,0,1,1.55.39l-.29.83a2.37,2.37,0,0,0-1.28-.37c-.68,0-1.06.39-1.06.86s.38.76,1.2,1.07c1.09.41,1.65,1,1.65,1.9,0,1.1-.86,1.88-2.35,1.88a3.59,3.59,0,0,1-1.77-.43Z" transform="translate(0 0.26)"/><path d="M204.82,201.18a.71.71,0,0,1-1.41,0,.69.69,0,0,1,.71-.71A.67.67,0,0,1,204.82,201.18Zm-1.27,8.06V203h1.14v6.29Z" transform="translate(0 0.26)"/><path d="M207,203l1.24,3.53a16.3,16.3,0,0,1,.5,1.62h0c.15-.52.33-1,.54-1.62l1.22-3.53h1.19l-2.47,6.29H208.2L205.81,203Z" transform="translate(0 0.26)"/><path d="M213.35,206.3a2,2,0,0,0,2.16,2.19,4.15,4.15,0,0,0,1.74-.33l.2.82a5.2,5.2,0,0,1-2.1.39,2.92,2.92,0,0,1-3.09-3.17c0-1.9,1.12-3.39,3-3.39,2,0,2.6,1.8,2.6,3a4.82,4.82,0,0,1,0,.53Zm3.35-.82a1.62,1.62,0,0,0-1.58-1.86,1.9,1.9,0,0,0-1.76,1.86Z" transform="translate(0 0.26)"/><path d="M227.42,200v7.61c0,.56,0,1.19.05,1.62h-1l-.05-1.09h0a2.31,2.31,0,0,1-2.14,1.23c-1.52,0-2.69-1.28-2.69-3.19,0-2.1,1.28-3.38,2.82-3.38a2.11,2.11,0,0,1,1.9,1h0V200Zm-1.15,5.5a2,2,0,0,0-.05-.48,1.68,1.68,0,0,0-1.65-1.33c-1.18,0-1.89,1-1.89,2.43s.63,2.33,1.86,2.33a1.73,1.73,0,0,0,1.68-1.36,2,2,0,0,0,.05-.5Z" transform="translate(0 0.26)"/><path d="M230,206.3a2,2,0,0,0,2.16,2.19,4.15,4.15,0,0,0,1.74-.33l.2.82a5.2,5.2,0,0,1-2.1.39,2.92,2.92,0,0,1-3.09-3.17c0-1.9,1.12-3.39,2.95-3.39,2.05,0,2.6,1.8,2.6,3a4.82,4.82,0,0,1,0,.53Zm3.35-.82a1.62,1.62,0,0,0-1.58-1.86,1.9,1.9,0,0,0-1.76,1.86Z" transform="translate(0 0.26)"/><path d="M235.67,208.07a3,3,0,0,0,1.51.46c.83,0,1.22-.42,1.22-.94s-.32-.84-1.17-1.16c-1.13-.4-1.66-1-1.66-1.78a1.94,1.94,0,0,1,2.17-1.84,3.11,3.11,0,0,1,1.54.39L239,204a2.41,2.41,0,0,0-1.29-.37c-.67,0-1.05.39-1.05.86s.38.76,1.19,1.07c1.1.41,1.66,1,1.66,1.9,0,1.1-.86,1.88-2.36,1.88a3.62,3.62,0,0,1-1.77-.43Z" transform="translate(0 0.26)"/><path d="M242.25,201.18a.71.71,0,0,1-1.42,0,.7.7,0,0,1,.72-.71A.67.67,0,0,1,242.25,201.18ZM241,209.24V203h1.15v6.29Z" transform="translate(0 0.26)"/><path d="M249.44,203c0,.45-.05,1-.05,1.73v3.65a3.61,3.61,0,0,1-.9,2.87,3.31,3.31,0,0,1-2.29.76,4,4,0,0,1-2.09-.52l.28-.87a3.58,3.58,0,0,0,1.85.49c1.17,0,2-.61,2-2.2v-.7h0a2.24,2.24,0,0,1-2,1.06,2.82,2.82,0,0,1-2.68-3.07c0-2.13,1.39-3.34,2.84-3.34a2.09,2.09,0,0,1,2,1.09h0l.06-1Zm-1.19,2.48a1.73,1.73,0,0,0-.06-.52,1.66,1.66,0,0,0-1.6-1.21c-1.09,0-1.87.93-1.87,2.38,0,1.24.62,2.26,1.86,2.26a1.66,1.66,0,0,0,1.58-1.17,1.81,1.81,0,0,0,.09-.61Z" transform="translate(0 0.26)"/><path d="M251.21,204.65c0-.65,0-1.18-.06-1.7h1l.06,1h0a2.31,2.31,0,0,1,2.08-1.18c.87,0,2.22.52,2.22,2.67v3.76h-1.14v-3.63c0-1-.38-1.86-1.46-1.86a1.62,1.62,0,0,0-1.53,1.18,1.64,1.64,0,0,0-.08.53v3.78h-1.14Z" transform="translate(0 0.26)"/><path d="M257.68,210.84a18.12,18.12,0,0,0,.78-3.11l1.27-.13a16,16,0,0,1-1.23,3.16Z" transform="translate(0 0.26)"/><path d="M264,209.24v-5.42h-.88V203H264v-.3a3,3,0,0,1,.73-2.2,2.22,2.22,0,0,1,1.54-.58,2.66,2.66,0,0,1,1,.18l-.16.88a1.79,1.79,0,0,0-.72-.14c-1,0-1.22.86-1.22,1.82V203h1.52v.87h-1.52v5.42Z" transform="translate(0 0.26)"/><path d="M267.66,204.91c0-.74,0-1.38-.05-2h1l0,1.23h.05a1.89,1.89,0,0,1,1.74-1.37,1.06,1.06,0,0,1,.33,0v1.07a2.21,2.21,0,0,0-.39,0,1.59,1.59,0,0,0-1.53,1.46,2.87,2.87,0,0,0-.06.54v3.35h-1.13Z" transform="translate(0 0.26)"/><path d="M277.48,206a3.07,3.07,0,0,1-3.13,3.34,3,3,0,0,1-3-3.23,3.07,3.07,0,0,1,3.12-3.34A3,3,0,0,1,277.48,206Zm-5,.07c0,1.38.79,2.42,1.91,2.42s1.91-1,1.91-2.45c0-1.06-.53-2.42-1.89-2.42S272.49,204.91,272.49,206.11Z" transform="translate(0 0.26)"/><path d="M278.92,204.65c0-.65,0-1.18-.05-1.7h1l.07,1h0a2.32,2.32,0,0,1,2.08-1.18c.87,0,2.23.52,2.23,2.67v3.76h-1.15v-3.63c0-1-.37-1.86-1.45-1.86a1.7,1.7,0,0,0-1.62,1.71v3.78h-1.14Z" transform="translate(0 0.26)"/><path d="M287.46,201.14V203h1.64v.87h-1.64v3.39c0,.78.22,1.23.86,1.23a2.44,2.44,0,0,0,.66-.08l.06.86a2.93,2.93,0,0,1-1,.15,1.58,1.58,0,0,1-1.23-.48,2.32,2.32,0,0,1-.45-1.64v-3.43h-1V203h1v-1.51Z" transform="translate(0 0.26)"/><path d="M293,205.3v.85h-3.21v-.85Z" transform="translate(0 0.26)"/><path d="M295.18,206.3a2,2,0,0,0,2.16,2.19,4.15,4.15,0,0,0,1.74-.33l.2.82a5.11,5.11,0,0,1-2.09.39,2.92,2.92,0,0,1-3.1-3.17c0-1.9,1.12-3.39,3-3.39,2.06,0,2.6,1.8,2.6,3a3.17,3.17,0,0,1,0,.53Zm3.36-.82a1.64,1.64,0,0,0-1.59-1.86,1.89,1.89,0,0,0-1.75,1.86Z" transform="translate(0 0.26)"/><path d="M301.06,204.65c0-.65,0-1.18-.05-1.7h1l.07,1h0a2.31,2.31,0,0,1,2.08-1.18c.87,0,2.23.52,2.23,2.67v3.76h-1.15v-3.63c0-1-.38-1.86-1.45-1.86a1.7,1.7,0,0,0-1.62,1.71v3.78h-1.14Z" transform="translate(0 0.26)"/><path d="M313.71,200v7.61c0,.56,0,1.19.05,1.62h-1l-.05-1.09h0a2.34,2.34,0,0,1-2.15,1.23c-1.52,0-2.69-1.28-2.69-3.19,0-2.1,1.29-3.38,2.82-3.38a2.11,2.11,0,0,1,1.9,1h0V200Zm-1.15,5.5a2,2,0,0,0-.05-.48,1.68,1.68,0,0,0-1.65-1.33c-1.18,0-1.88,1-1.88,2.43s.62,2.33,1.85,2.33a1.73,1.73,0,0,0,1.68-1.36,2,2,0,0,0,.05-.5Z" transform="translate(0 0.26)"/><path d="M323.8,200v7.61c0,.56,0,1.19.05,1.62h-1l-.05-1.09h0a2.33,2.33,0,0,1-2.14,1.23c-1.52,0-2.69-1.28-2.69-3.19,0-2.1,1.28-3.38,2.82-3.38a2.11,2.11,0,0,1,1.9,1h0V200Zm-1.15,5.5a2,2,0,0,0,0-.48A1.68,1.68,0,0,0,321,203.7c-1.18,0-1.89,1-1.89,2.43s.63,2.33,1.86,2.33a1.73,1.73,0,0,0,1.68-1.36,2,2,0,0,0,0-.5Z" transform="translate(0 0.26)"/><path d="M326.33,206.3a2,2,0,0,0,2.16,2.19,4.15,4.15,0,0,0,1.74-.33l.2.82a5.2,5.2,0,0,1-2.1.39,2.92,2.92,0,0,1-3.09-3.17c0-1.9,1.12-3.39,2.95-3.39,2.05,0,2.6,1.8,2.6,3a4.82,4.82,0,0,1,0,.53Zm3.36-.82a1.64,1.64,0,0,0-1.59-1.86,1.91,1.91,0,0,0-1.76,1.86Z" transform="translate(0 0.26)"/><path d="M332.65,203l1.23,3.53a16.48,16.48,0,0,1,.51,1.62h0c.14-.52.32-1,.53-1.62l1.22-3.53h1.2l-2.47,6.29h-1.09L331.43,203Z" transform="translate(0 0.26)"/><path d="M339,206.3a2,2,0,0,0,2.15,2.19,4.2,4.2,0,0,0,1.75-.33l.19.82a5.11,5.11,0,0,1-2.09.39,2.91,2.91,0,0,1-3.09-3.17c0-1.9,1.11-3.39,2.95-3.39,2.05,0,2.6,1.8,2.6,3a4.82,4.82,0,0,1,0,.53Zm3.35-.82a1.63,1.63,0,0,0-1.58-1.86,1.9,1.9,0,0,0-1.76,1.86Z" transform="translate(0 0.26)"/><path d="M344.84,200H346v9.23h-1.15Z" transform="translate(0 0.26)"/><path d="M353.61,206a3.08,3.08,0,0,1-3.14,3.34,3,3,0,0,1-3-3.23,3.07,3.07,0,0,1,3.12-3.34A3,3,0,0,1,353.61,206Zm-5,.07c0,1.38.8,2.42,1.91,2.42s1.92-1,1.92-2.45c0-1.06-.54-2.42-1.89-2.42S348.61,204.91,348.61,206.11Z" transform="translate(0 0.26)"/><path d="M355.05,205c0-.8,0-1.45-.05-2.05h1l.06,1.08h0a2.47,2.47,0,0,1,2.24-1.22c1.52,0,2.66,1.28,2.66,3.19,0,2.27-1.38,3.38-2.86,3.38a2.19,2.19,0,0,1-1.93-1h0v3.42h-1.13Zm1.13,1.68a3.23,3.23,0,0,0,.05.47,1.77,1.77,0,0,0,1.72,1.34c1.21,0,1.91-1,1.91-2.43,0-1.27-.67-2.34-1.87-2.34a1.82,1.82,0,0,0-1.73,1.41,1.85,1.85,0,0,0-.08.47Z" transform="translate(0 0.26)"/><path d="M362.44,204.65c0-.65,0-1.18-.05-1.7h1l.06,1h0a2.17,2.17,0,0,1,2-1.15,1.85,1.85,0,0,1,1.78,1.26h0a2.49,2.49,0,0,1,.7-.82,2.12,2.12,0,0,1,1.39-.44c.83,0,2.07.54,2.07,2.73v3.7h-1.12v-3.56c0-1.21-.44-1.94-1.37-1.94a1.48,1.48,0,0,0-1.35,1,2,2,0,0,0-.09.57v3.89h-1.12v-3.77c0-1-.44-1.73-1.31-1.73a1.57,1.57,0,0,0-1.42,1.15,1.67,1.67,0,0,0-.09.55v3.8h-1.12Z" transform="translate(0 0.26)"/><path d="M373.92,206.3a2,2,0,0,0,2.16,2.19,4.15,4.15,0,0,0,1.74-.33l.2.82a5.12,5.12,0,0,1-2.1.39,2.92,2.92,0,0,1-3.09-3.17c0-1.9,1.12-3.39,2.95-3.39,2.06,0,2.6,1.8,2.6,3a3.17,3.17,0,0,1,0,.53Zm3.36-.82a1.64,1.64,0,0,0-1.59-1.86,1.89,1.89,0,0,0-1.75,1.86Z" transform="translate(0 0.26)"/><path d="M379.8,204.65c0-.65,0-1.18-.05-1.7h1l.07,1h0a2.32,2.32,0,0,1,2.08-1.18c.87,0,2.23.52,2.23,2.67v3.76H384v-3.63c0-1-.38-1.86-1.45-1.86a1.7,1.7,0,0,0-1.62,1.71v3.78H379.8Z" transform="translate(0 0.26)"/><path d="M388.34,201.14V203H390v.87h-1.64v3.39c0,.78.22,1.23.86,1.23a2.44,2.44,0,0,0,.66-.08l.05.86a2.82,2.82,0,0,1-1,.15,1.62,1.62,0,0,1-1.24-.48,2.37,2.37,0,0,1-.44-1.64v-3.43h-1V203h1v-1.51Z" transform="translate(0 0.26)"/><path d="M390.49,210.84a20.18,20.18,0,0,0,.78-3.11l1.27-.13a15.4,15.4,0,0,1-1.24,3.16Z" transform="translate(0 0.26)"/><path d="M400.16,209.24l-.09-.79h0a2.36,2.36,0,0,1-1.93.93,1.79,1.79,0,0,1-1.92-1.8c0-1.52,1.35-2.36,3.78-2.34v-.13a1.3,1.3,0,0,0-1.43-1.46,3.14,3.14,0,0,0-1.64.47l-.26-.76a4,4,0,0,1,2.07-.55c1.92,0,2.39,1.31,2.39,2.57v2.35a8.62,8.62,0,0,0,.11,1.51ZM400,206c-1.25,0-2.67.2-2.67,1.42a1,1,0,0,0,1.08,1.09,1.56,1.56,0,0,0,1.52-1,1.21,1.21,0,0,0,.07-.37Z" transform="translate(0 0.26)"/><path d="M402.94,204.65c0-.65,0-1.18-.05-1.7h1l.07,1h0a2.31,2.31,0,0,1,2.08-1.18c.87,0,2.23.52,2.23,2.67v3.76h-1.15v-3.63c0-1-.38-1.86-1.45-1.86a1.7,1.7,0,0,0-1.62,1.71v3.78h-1.14Z" transform="translate(0 0.26)"/><path d="M415.59,200v7.61c0,.56,0,1.19.05,1.62h-1l-.05-1.09h0a2.34,2.34,0,0,1-2.15,1.23c-1.52,0-2.69-1.28-2.69-3.19,0-2.1,1.29-3.38,2.82-3.38a2.11,2.11,0,0,1,1.9,1h0V200Zm-1.15,5.5a2,2,0,0,0-.05-.48,1.68,1.68,0,0,0-1.65-1.33c-1.18,0-1.88,1-1.88,2.43s.62,2.33,1.85,2.33a1.73,1.73,0,0,0,1.68-1.36,2,2,0,0,0,.05-.5Z" transform="translate(0 0.26)"/><path d="M425.94,206a3.08,3.08,0,0,1-3.14,3.34,3,3,0,0,1-3-3.23,3.07,3.07,0,0,1,3.12-3.34A3,3,0,0,1,425.94,206Zm-5,.07c0,1.38.8,2.42,1.92,2.42s1.91-1,1.91-2.45c0-1.06-.54-2.42-1.89-2.42S420.94,204.91,420.94,206.11Z" transform="translate(0 0.26)"/><path d="M427.38,205c0-.8,0-1.45-.05-2.05h1l.06,1.08h0a2.47,2.47,0,0,1,2.24-1.22c1.52,0,2.66,1.28,2.66,3.19,0,2.27-1.37,3.38-2.86,3.38a2.19,2.19,0,0,1-1.93-1h0v3.42h-1.13Zm1.13,1.68a3.23,3.23,0,0,0,.05.47,1.77,1.77,0,0,0,1.72,1.34c1.21,0,1.91-1,1.91-2.43,0-1.27-.66-2.34-1.87-2.34a1.82,1.82,0,0,0-1.73,1.41,1.85,1.85,0,0,0-.08.47Z" transform="translate(0 0.26)"/><path d="M436.15,201.14V203h1.64v.87h-1.64v3.39c0,.78.22,1.23.86,1.23a2.44,2.44,0,0,0,.66-.08l.06.86a2.93,2.93,0,0,1-1,.15,1.58,1.58,0,0,1-1.23-.48,2.32,2.32,0,0,1-.44-1.64v-3.43h-1V203h1v-1.51Z" transform="translate(0 0.26)"/><path d="M440.35,201.18a.67.67,0,0,1-.73.7.68.68,0,0,1-.69-.7.7.7,0,0,1,.72-.71A.67.67,0,0,1,440.35,201.18Zm-1.27,8.06V203h1.14v6.29Z" transform="translate(0 0.26)"/><path d="M442.12,204.65c0-.65,0-1.18-.05-1.7h1l.05,1h0a2.17,2.17,0,0,1,2-1.15,1.87,1.87,0,0,1,1.78,1.26h0a2.51,2.51,0,0,1,.71-.82,2.1,2.1,0,0,1,1.39-.44c.83,0,2.06.54,2.06,2.73v3.7H450v-3.56c0-1.21-.45-1.94-1.37-1.94a1.47,1.47,0,0,0-1.35,1,2,2,0,0,0-.09.57v3.89h-1.12v-3.77c0-1-.44-1.73-1.31-1.73a1.56,1.56,0,0,0-1.42,1.15,1.45,1.45,0,0,0-.09.55v3.8h-1.12Z" transform="translate(0 0.26)"/><path d="M454.24,201.18a.71.71,0,0,1-1.42,0,.69.69,0,0,1,.71-.71A.68.68,0,0,1,454.24,201.18ZM453,209.24V203h1.15v6.29Z" transform="translate(0 0.26)"/><path d="M455.29,208.58l2.85-3.71c.27-.33.53-.63.82-1v0h-3.41V203h4.8l0,.71-2.81,3.66c-.26.35-.52.66-.8,1v0h3.68v.91h-5.11Z" transform="translate(0 0.26)"/><path d="M462.84,201.18a.67.67,0,0,1-.73.7.68.68,0,0,1-.69-.7.7.7,0,0,1,.72-.71A.67.67,0,0,1,462.84,201.18Zm-1.27,8.06V203h1.14v6.29Z" transform="translate(0 0.26)"/><path d="M464.61,204.65c0-.65,0-1.18-.05-1.7h1l.07,1h0a2.32,2.32,0,0,1,2.08-1.18c.87,0,2.23.52,2.23,2.67v3.76h-1.15v-3.63c0-1-.37-1.86-1.45-1.86a1.7,1.7,0,0,0-1.62,1.71v3.78h-1.14Z" transform="translate(0 0.26)"/><path d="M477.25,203c0,.45-.06,1-.06,1.73v3.65a3.61,3.61,0,0,1-.89,2.87A3.31,3.31,0,0,1,474,212a4,4,0,0,1-2.09-.52l.28-.87a3.58,3.58,0,0,0,1.85.49c1.17,0,2-.61,2-2.2v-.7h0a2.24,2.24,0,0,1-2,1.06,2.82,2.82,0,0,1-2.68-3.07c0-2.13,1.39-3.34,2.83-3.34a2.1,2.1,0,0,1,2,1.09h0l.06-1Zm-1.19,2.48a1.73,1.73,0,0,0-.06-.52,1.66,1.66,0,0,0-1.6-1.21c-1.09,0-1.87.93-1.87,2.38,0,1.24.62,2.26,1.86,2.26a1.66,1.66,0,0,0,1.58-1.17,1.81,1.81,0,0,0,.09-.61Z" transform="translate(0 0.26)"/><path d="M481.85,205c0-.8,0-1.45-.05-2.05h1l.05,1.08h0a2.47,2.47,0,0,1,2.24-1.22c1.52,0,2.66,1.28,2.66,3.19,0,2.27-1.38,3.38-2.86,3.38a2.22,2.22,0,0,1-1.94-1h0v3.42h-1.13Zm1.13,1.68a2.26,2.26,0,0,0,0,.47,1.77,1.77,0,0,0,1.72,1.34c1.21,0,1.91-1,1.91-2.43,0-1.27-.66-2.34-1.87-2.34a1.82,1.82,0,0,0-1.73,1.41,1.85,1.85,0,0,0-.08.47Z" transform="translate(0 0.26)"/><path d="M489.88,206.3a2,2,0,0,0,2.16,2.19,4.15,4.15,0,0,0,1.74-.33l.2.82a5.2,5.2,0,0,1-2.1.39,2.92,2.92,0,0,1-3.09-3.17c0-1.9,1.12-3.39,2.95-3.39,2.05,0,2.6,1.8,2.6,3a4.82,4.82,0,0,1,0,.53Zm3.36-.82a1.64,1.64,0,0,0-1.59-1.86,1.91,1.91,0,0,0-1.76,1.86Z" transform="translate(0 0.26)"/><path d="M495.76,204.91c0-.74,0-1.38-.05-2h1l0,1.23h.05a1.88,1.88,0,0,1,1.74-1.37,1,1,0,0,1,.32,0v1.07a2.13,2.13,0,0,0-.39,0,1.61,1.61,0,0,0-1.53,1.46,4.15,4.15,0,0,0-.05.54v3.35h-1.13Z" transform="translate(0 0.26)"/><path d="M500.52,209.24v-5.42h-.89V203h.89v-.3a3,3,0,0,1,.72-2.2,2.22,2.22,0,0,1,1.54-.58,2.66,2.66,0,0,1,1,.18l-.15.88a1.88,1.88,0,0,0-.73-.14c-1,0-1.22.86-1.22,1.82V203h1.52v.87h-1.52v5.42Z" transform="translate(0 0.26)"/><path d="M509.72,206a3.07,3.07,0,0,1-3.13,3.34,3,3,0,0,1-3-3.23,3.07,3.07,0,0,1,3.12-3.34A3,3,0,0,1,509.72,206Zm-5,.07c0,1.38.79,2.42,1.91,2.42s1.91-1,1.91-2.45c0-1.06-.53-2.42-1.89-2.42S504.73,204.91,504.73,206.11Z" transform="translate(0 0.26)"/><path d="M511.16,204.91c0-.74,0-1.38-.05-2h1l0,1.23h.05a1.89,1.89,0,0,1,1.74-1.37,1.11,1.11,0,0,1,.33,0v1.07a2.21,2.21,0,0,0-.39,0,1.61,1.61,0,0,0-1.54,1.46,4.15,4.15,0,0,0-.05.54v3.35h-1.13Z" transform="translate(0 0.26)"/><path d="M518,205.3v.85h-3.21v-.85Z" transform="translate(0 0.26)"/><path d="M90,219.65c0-.65,0-1.18-.06-1.7h1l.06,1h0a2.15,2.15,0,0,1,2-1.15,1.85,1.85,0,0,1,1.78,1.26h0a2.49,2.49,0,0,1,.7-.82,2.12,2.12,0,0,1,1.39-.44c.83,0,2.07.54,2.07,2.73v3.7H97.82v-3.56c0-1.21-.44-1.94-1.36-1.94a1.5,1.5,0,0,0-1.36,1,2,2,0,0,0-.09.57v3.89H93.89v-3.77c0-1-.44-1.73-1.31-1.73a1.58,1.58,0,0,0-1.42,1.15,1.67,1.67,0,0,0-.09.55v3.8H90Z" transform="translate(0 0.26)"/><path d="M104.28,224.24l-.09-.79h0a2.35,2.35,0,0,1-1.92.93,1.79,1.79,0,0,1-1.93-1.8c0-1.52,1.36-2.36,3.79-2.34v-.13a1.3,1.3,0,0,0-1.43-1.46,3.09,3.09,0,0,0-1.64.47l-.26-.76a4,4,0,0,1,2.07-.55c1.92,0,2.39,1.31,2.39,2.57v2.35a8.69,8.69,0,0,0,.1,1.51Zm-.17-3.21c-1.25,0-2.66.2-2.66,1.42a1,1,0,0,0,1.08,1.09,1.56,1.56,0,0,0,1.52-1,1.19,1.19,0,0,0,.06-.37Z" transform="translate(0 0.26)"/><path d="M107.06,219.65c0-.65,0-1.18,0-1.7h1l.06,1h0a2.31,2.31,0,0,1,2.08-1.18c.87,0,2.22.52,2.22,2.67v3.76h-1.14v-3.63c0-1-.38-1.86-1.46-1.86a1.62,1.62,0,0,0-1.53,1.18,1.41,1.41,0,0,0-.08.53v3.78h-1.15Z" transform="translate(0 0.26)"/><path d="M118.76,224a4.31,4.31,0,0,1-1.8.36,3,3,0,0,1-3.14-3.21,3.2,3.2,0,0,1,3.38-3.34,3.93,3.93,0,0,1,1.59.32l-.26.89a2.6,2.6,0,0,0-1.33-.3,2.37,2.37,0,0,0,0,4.73,3.35,3.35,0,0,0,1.41-.31Z" transform="translate(0 0.26)"/><path d="M120.66,221.3a2,2,0,0,0,2.16,2.19,4.15,4.15,0,0,0,1.74-.33l.2.82a5.2,5.2,0,0,1-2.1.39,2.92,2.92,0,0,1-3.09-3.17c0-1.9,1.12-3.39,3-3.39,2,0,2.6,1.8,2.6,3a4.82,4.82,0,0,1,0,.53Zm3.36-.82a1.64,1.64,0,0,0-1.59-1.86,1.91,1.91,0,0,0-1.76,1.86Z" transform="translate(0 0.26)"/><path d="M129.41,224.24v-5.42h-.88V218h.88v-.3a3,3,0,0,1,.73-2.2,2.21,2.21,0,0,1,1.53-.58,2.72,2.72,0,0,1,1,.18l-.16.88a1.84,1.84,0,0,0-.73-.14c-1,0-1.22.86-1.22,1.82V218h1.52v.87h-1.52v5.42Z" transform="translate(0 0.26)"/><path d="M138.61,221a3.07,3.07,0,0,1-3.13,3.34,3,3,0,0,1-3-3.23,3.07,3.07,0,0,1,3.12-3.34A3,3,0,0,1,138.61,221Zm-5,.07c0,1.38.8,2.42,1.91,2.42s1.91-1,1.91-2.45c0-1.06-.53-2.42-1.88-2.42S133.62,219.91,133.62,221.11Z" transform="translate(0 0.26)"/><path d="M140.06,219.91c0-.74,0-1.38-.06-2h1l0,1.23h.06a1.88,1.88,0,0,1,1.74-1.37,1,1,0,0,1,.32,0v1.07a2.13,2.13,0,0,0-.39,0,1.61,1.61,0,0,0-1.53,1.46,2.92,2.92,0,0,0-.05.54v3.35h-1.13Z" transform="translate(0 0.26)"/><path d="M147,224.24c0-.43.05-1.06.05-1.62V215h1.13v4h0a2.34,2.34,0,0,1,2.15-1.15c1.56,0,2.66,1.3,2.65,3.21,0,2.25-1.42,3.36-2.82,3.36a2.25,2.25,0,0,1-2.11-1.18h0l-.05,1Zm1.18-2.52a1.93,1.93,0,0,0,.06.42,1.75,1.75,0,0,0,1.71,1.33c1.2,0,1.91-1,1.91-2.41,0-1.27-.65-2.34-1.87-2.34a1.82,1.82,0,0,0-1.74,1.4,2,2,0,0,0-.07.47Z" transform="translate(0 0.26)"/><path d="M155.1,221.3a2,2,0,0,0,2.16,2.19,4.18,4.18,0,0,0,1.74-.33l.19.82a5.11,5.11,0,0,1-2.09.39A2.91,2.91,0,0,1,154,221.2c0-1.9,1.11-3.39,3-3.39,2,0,2.6,1.8,2.6,3a4.82,4.82,0,0,1,0,.53Zm3.35-.82a1.63,1.63,0,0,0-1.58-1.86,1.9,1.9,0,0,0-1.76,1.86Z" transform="translate(0 0.26)"/><path d="M162.35,216.14V218H164v.87h-1.64v3.39c0,.78.22,1.23.86,1.23a2.44,2.44,0,0,0,.66-.08l0,.86a2.82,2.82,0,0,1-1,.15,1.58,1.58,0,0,1-1.23-.48,2.32,2.32,0,0,1-.45-1.64v-3.43h-1V218h1v-1.51Z" transform="translate(0 0.26)"/><path d="M166.65,216.14V218h1.64v.87h-1.64v3.39c0,.78.23,1.23.86,1.23a2.58,2.58,0,0,0,.67-.08l0,.86a2.85,2.85,0,0,1-1,.15,1.58,1.58,0,0,1-1.23-.48,2.32,2.32,0,0,1-.44-1.64v-3.43h-1V218h1v-1.51Z" transform="translate(0 0.26)"/><path d="M170.14,221.3a2,2,0,0,0,2.16,2.19,4.15,4.15,0,0,0,1.74-.33l.19.82a5.11,5.11,0,0,1-2.09.39,2.91,2.91,0,0,1-3.09-3.17c0-1.9,1.11-3.39,2.95-3.39,2.05,0,2.6,1.8,2.6,3a4.82,4.82,0,0,1,0,.53Zm3.35-.82a1.63,1.63,0,0,0-1.58-1.86,1.9,1.9,0,0,0-1.76,1.86Z" transform="translate(0 0.26)"/><path d="M176,219.91c0-.74,0-1.38,0-2h1l0,1.23h.05a1.9,1.9,0,0,1,1.75-1.37,1,1,0,0,1,.32,0v1.07a2.21,2.21,0,0,0-.39,0,1.6,1.6,0,0,0-1.53,1.46,2.92,2.92,0,0,0,0,.54v3.35H176Z" transform="translate(0 0.26)"/><path d="M182.9,222.86a4,4,0,0,0,2,.58c1.16,0,1.84-.62,1.84-1.5s-.47-1.29-1.66-1.74c-1.43-.51-2.31-1.25-2.31-2.49s1.13-2.37,2.83-2.37a3.88,3.88,0,0,1,1.94.43l-.31.92a3.44,3.44,0,0,0-1.66-.42c-1.2,0-1.66.72-1.66,1.31,0,.82.54,1.23,1.75,1.69,1.48.58,2.23,1.29,2.23,2.58s-1,2.52-3.07,2.52a4.55,4.55,0,0,1-2.23-.56Z" transform="translate(0 0.26)"/><path d="M194,220.13H190.6v3.16h3.8v1h-4.93v-8.76h4.73v1h-3.6v2.77H194Z" transform="translate(0 0.26)"/><path d="M203.35,219.77c0,3-1.83,4.61-4.07,4.61s-3.94-1.79-3.94-4.44,1.73-4.6,4.07-4.6S203.35,217.17,203.35,219.77Zm-6.8.14c0,1.87,1,3.55,2.8,3.55s2.81-1.65,2.81-3.64c0-1.74-.91-3.56-2.8-3.56S196.55,218,196.55,219.91Z" transform="translate(0 0.26)"/><path d="M204.07,223.56a.78.78,0,1,1,.76.82A.76.76,0,0,1,204.07,223.56Z" transform="translate(0 0.26)"/><path d="M209.67,222.86a4,4,0,0,0,2,.58c1.16,0,1.83-.62,1.83-1.5s-.47-1.29-1.65-1.74c-1.43-.51-2.31-1.25-2.31-2.49s1.13-2.37,2.83-2.37a3.88,3.88,0,0,1,1.94.43l-.31.92a3.49,3.49,0,0,0-1.67-.42c-1.19,0-1.65.72-1.65,1.31,0,.82.53,1.23,1.74,1.69,1.48.58,2.24,1.29,2.24,2.58s-1,2.52-3.07,2.52a4.59,4.59,0,0,1-2.24-.56Z" transform="translate(0 0.26)"/><path d="M217.33,220.83h0c.16-.22.38-.49.56-.71l1.85-2.17h1.38l-2.43,2.59,2.76,3.7h-1.39l-2.17-3-.58.65v2.36H216.2V215h1.13Z" transform="translate(0 0.26)"/><path d="M223.79,216.18a.71.71,0,0,1-1.42,0,.7.7,0,0,1,.72-.71A.67.67,0,0,1,223.79,216.18Zm-1.28,8.06V218h1.15v6.29Z" transform="translate(0 0.26)"/><path d="M225.56,215h1.14v9.23h-1.14Z" transform="translate(0 0.26)"/><path d="M228.62,215h1.15v9.23h-1.15Z" transform="translate(0 0.26)"/><path d="M232.33,221.3a2,2,0,0,0,2.16,2.19,4.15,4.15,0,0,0,1.74-.33l.19.82a5.11,5.11,0,0,1-2.09.39,2.91,2.91,0,0,1-3.09-3.17c0-1.9,1.12-3.39,2.95-3.39,2.05,0,2.6,1.8,2.6,3a4.82,4.82,0,0,1,0,.53Zm3.35-.82a1.63,1.63,0,0,0-1.58-1.86,1.9,1.9,0,0,0-1.76,1.86Z" transform="translate(0 0.26)"/><path d="M243.64,215v7.61c0,.56,0,1.19.05,1.62h-1l0-1.09h0a2.34,2.34,0,0,1-2.15,1.23c-1.52,0-2.69-1.28-2.69-3.19,0-2.1,1.29-3.38,2.82-3.38a2.11,2.11,0,0,1,1.9,1h0V215Zm-1.14,5.5a2,2,0,0,0-.06-.48,1.68,1.68,0,0,0-1.65-1.33c-1.18,0-1.88,1-1.88,2.43s.62,2.33,1.86,2.33a1.72,1.72,0,0,0,1.67-1.36,2,2,0,0,0,.06-.5Z" transform="translate(0 0.26)"/><path d="M249.57,216.18a.71.71,0,0,1-1.42,0,.69.69,0,0,1,.71-.71A.68.68,0,0,1,249.57,216.18Zm-1.28,8.06V218h1.15v6.29Z" transform="translate(0 0.26)"/><path d="M251.33,219.65c0-.65,0-1.18-.05-1.7h1l.06,1h0a2.31,2.31,0,0,1,2.08-1.18c.87,0,2.22.52,2.22,2.67v3.76h-1.14v-3.63c0-1-.38-1.86-1.46-1.86a1.62,1.62,0,0,0-1.53,1.18,1.41,1.41,0,0,0-.08.53v3.78h-1.15Z" transform="translate(0 0.26)"/><path d="M265.79,224a4.32,4.32,0,0,1-1.81.36,3,3,0,0,1-3.13-3.21,3.2,3.2,0,0,1,3.38-3.34,4,4,0,0,1,1.59.32l-.26.89a2.66,2.66,0,0,0-1.33-.3,2.37,2.37,0,0,0,0,4.73,3.35,3.35,0,0,0,1.41-.31Z" transform="translate(0 0.26)"/><path d="M272.4,222.52c0,.66,0,1.23.05,1.72h-1l-.06-1h0a2.36,2.36,0,0,1-2.08,1.17c-1,0-2.17-.54-2.17-2.75V218h1.14v3.48c0,1.2.37,2,1.41,2a1.67,1.67,0,0,0,1.51-1,1.82,1.82,0,0,0,.1-.59V218h1.15Z" transform="translate(0 0.26)"/><path d="M274.14,223.07a3,3,0,0,0,1.5.46c.84,0,1.23-.42,1.23-.94s-.33-.84-1.17-1.16c-1.13-.4-1.67-1-1.67-1.78a1.94,1.94,0,0,1,2.17-1.84,3.12,3.12,0,0,1,1.55.39l-.29.83a2.37,2.37,0,0,0-1.28-.37c-.68,0-1.06.39-1.06.86s.38.76,1.2,1.07c1.09.41,1.65,1,1.65,1.9,0,1.1-.86,1.88-2.35,1.88a3.59,3.59,0,0,1-1.77-.43Z" transform="translate(0 0.26)"/><path d="M280.82,216.14V218h1.64v.87h-1.64v3.39c0,.78.22,1.23.86,1.23a2.44,2.44,0,0,0,.66-.08l.05.86a2.82,2.82,0,0,1-1,.15,1.6,1.6,0,0,1-1.24-.48,2.37,2.37,0,0,1-.44-1.64v-3.43h-1V218h1v-1.51Z" transform="translate(0 0.26)"/><path d="M289.36,221a3.07,3.07,0,0,1-3.13,3.34,3,3,0,0,1-3-3.23,3.07,3.07,0,0,1,3.12-3.34A3,3,0,0,1,289.36,221Zm-5,.07c0,1.38.79,2.42,1.91,2.42s1.91-1,1.91-2.45c0-1.06-.53-2.42-1.89-2.42S284.37,219.91,284.37,221.11Z" transform="translate(0 0.26)"/><path d="M290.8,219.65c0-.65,0-1.18-.05-1.7h1l.05,1h0a2.17,2.17,0,0,1,2-1.15,1.85,1.85,0,0,1,1.78,1.26h0a2.49,2.49,0,0,1,.7-.82,2.1,2.1,0,0,1,1.39-.44c.83,0,2.07.54,2.07,2.73v3.7h-1.12v-3.56c0-1.21-.44-1.94-1.37-1.94a1.48,1.48,0,0,0-1.35,1,2,2,0,0,0-.09.57v3.89h-1.12v-3.77c0-1-.44-1.73-1.31-1.73a1.56,1.56,0,0,0-1.42,1.15,1.67,1.67,0,0,0-.09.55v3.8H290.8Z" transform="translate(0 0.26)"/><path d="M305.4,224.24l-2.22-8.76h1.19l1,4.43c.26,1.09.5,2.19.65,3h0c.14-.87.42-1.91.72-3l1.17-4.42h1.18l1.06,4.45c.25,1,.49,2.08.62,3h0c.18-1,.43-1.94.7-3l1.16-4.42h1.16l-2.49,8.76h-1.18l-1.1-4.56a25.92,25.92,0,0,1-.58-2.86h0a27.24,27.24,0,0,1-.68,2.86l-1.25,4.56Z" transform="translate(0 0.26)"/><path d="M320.2,221a3.08,3.08,0,0,1-3.14,3.34,3,3,0,0,1-3-3.23,3.07,3.07,0,0,1,3.12-3.34A3,3,0,0,1,320.2,221Zm-5,.07c0,1.38.8,2.42,1.92,2.42s1.91-1,1.91-2.45c0-1.06-.54-2.42-1.89-2.42S315.2,219.91,315.2,221.11Z" transform="translate(0 0.26)"/><path d="M321.64,219.91c0-.74,0-1.38-.05-2h1l0,1.23h.05a1.88,1.88,0,0,1,1.74-1.37,1.15,1.15,0,0,1,.33,0v1.07a2.29,2.29,0,0,0-.39,0,1.61,1.61,0,0,0-1.54,1.46,4.15,4.15,0,0,0-.05.54v3.35h-1.13Z" transform="translate(0 0.26)"/><path d="M331.19,215v7.61c0,.56,0,1.19.06,1.62h-1l-.05-1.09h0a2.33,2.33,0,0,1-2.14,1.23c-1.53,0-2.7-1.28-2.7-3.19,0-2.1,1.29-3.38,2.83-3.38a2.08,2.08,0,0,1,1.89,1h0V215Zm-1.14,5.5A2,2,0,0,0,330,220a1.68,1.68,0,0,0-1.65-1.33c-1.19,0-1.89,1-1.89,2.43s.63,2.33,1.86,2.33A1.73,1.73,0,0,0,330,222.1a2,2,0,0,0,.05-.5Z" transform="translate(0 0.26)"/><path d="M333.13,215.58a13.23,13.23,0,0,1,2.17-.17,3.59,3.59,0,0,1,2.46.73,2.37,2.37,0,0,1,.77,1.84,2.6,2.6,0,0,1-.68,1.87,4.42,4.42,0,0,1-3.59.88v3.51h-1.13Zm1.13,4.23a4.1,4.1,0,0,0,.94.09c1.36,0,2.19-.66,2.19-1.87s-.81-1.72-2.06-1.72a4.92,4.92,0,0,0-1.07.09Z" transform="translate(0 0.26)"/><path d="M339.8,219.91c0-.74,0-1.38-.05-2h1l0,1.23h0a1.88,1.88,0,0,1,1.74-1.37,1.15,1.15,0,0,1,.33,0v1.07a2.29,2.29,0,0,0-.39,0,1.61,1.61,0,0,0-1.54,1.46,4.15,4.15,0,0,0-.05.54v3.35H339.8Z" transform="translate(0 0.26)"/><path d="M344.56,221.3a2,2,0,0,0,2.16,2.19,4.15,4.15,0,0,0,1.74-.33l.19.82a5.11,5.11,0,0,1-2.09.39,2.91,2.91,0,0,1-3.09-3.17c0-1.9,1.11-3.39,2.95-3.39,2.05,0,2.6,1.8,2.6,3a4.82,4.82,0,0,1,0,.53Zm3.35-.82a1.63,1.63,0,0,0-1.58-1.86,1.9,1.9,0,0,0-1.76,1.86Z" transform="translate(0 0.26)"/><path d="M350.28,223.07a3,3,0,0,0,1.51.46c.83,0,1.22-.42,1.22-.94s-.33-.84-1.17-1.16c-1.13-.4-1.67-1-1.67-1.78a1.94,1.94,0,0,1,2.17-1.84,3.12,3.12,0,0,1,1.55.39l-.28.83a2.44,2.44,0,0,0-1.29-.37c-.68,0-1.05.39-1.05.86s.37.76,1.19,1.07c1.09.41,1.65,1,1.65,1.9,0,1.1-.86,1.88-2.35,1.88a3.59,3.59,0,0,1-1.77-.43Z" transform="translate(0 0.26)"/><path d="M355.42,223.07a3,3,0,0,0,1.51.46c.83,0,1.23-.42,1.23-.94s-.33-.84-1.17-1.16c-1.14-.4-1.67-1-1.67-1.78a1.94,1.94,0,0,1,2.17-1.84,3.12,3.12,0,0,1,1.55.39l-.29.83a2.37,2.37,0,0,0-1.28-.37c-.68,0-1.06.39-1.06.86s.38.76,1.2,1.07c1.09.41,1.65,1,1.65,1.9,0,1.1-.86,1.88-2.35,1.88a3.59,3.59,0,0,1-1.77-.43Z" transform="translate(0 0.26)"/><path d="M364.86,216.14V218h1.64v.87h-1.64v3.39c0,.78.22,1.23.86,1.23a2.44,2.44,0,0,0,.66-.08l.06.86a2.93,2.93,0,0,1-1,.15,1.58,1.58,0,0,1-1.23-.48,2.32,2.32,0,0,1-.44-1.64v-3.43h-1V218h1v-1.51Z" transform="translate(0 0.26)"/><path d="M367.79,215h1.14v3.93h0a2.13,2.13,0,0,1,.82-.81,2.41,2.41,0,0,1,1.17-.32c.84,0,2.19.52,2.19,2.69v3.74H372v-3.61c0-1-.38-1.88-1.46-1.88A1.64,1.64,0,0,0,369,219.9a1.46,1.46,0,0,0-.08.54v3.8h-1.14Z" transform="translate(0 0.26)"/><path d="M375.64,221.3a2,2,0,0,0,2.16,2.19,4.15,4.15,0,0,0,1.74-.33l.2.82a5.2,5.2,0,0,1-2.1.39,2.92,2.92,0,0,1-3.09-3.17c0-1.9,1.12-3.39,2.95-3.39,2.05,0,2.6,1.8,2.6,3a4.82,4.82,0,0,1,0,.53Zm3.35-.82a1.62,1.62,0,0,0-1.58-1.86,1.9,1.9,0,0,0-1.76,1.86Z" transform="translate(0 0.26)"/><path d="M381.52,219.65c0-.65,0-1.18-.06-1.7h1l.06,1h0a2.15,2.15,0,0,1,2-1.15,1.85,1.85,0,0,1,1.78,1.26h0a2.49,2.49,0,0,1,.7-.82,2.12,2.12,0,0,1,1.39-.44c.83,0,2.07.54,2.07,2.73v3.7h-1.12v-3.56c0-1.21-.44-1.94-1.36-1.94a1.5,1.5,0,0,0-1.36,1,2,2,0,0,0-.09.57v3.89h-1.12v-3.77c0-1-.44-1.73-1.31-1.73a1.58,1.58,0,0,0-1.42,1.15,1.67,1.67,0,0,0-.09.55v3.8h-1.11Z" transform="translate(0 0.26)"/><path d="M393,221.3a2,2,0,0,0,2.16,2.19,4.11,4.11,0,0,0,1.74-.33l.2.82a5.11,5.11,0,0,1-2.09.39,2.92,2.92,0,0,1-3.1-3.17c0-1.9,1.12-3.39,3-3.39,2.06,0,2.6,1.8,2.6,3a3.17,3.17,0,0,1,0,.53Zm3.36-.82a1.64,1.64,0,0,0-1.59-1.86,1.9,1.9,0,0,0-1.75,1.86Z" transform="translate(0 0.26)"/><path d="M398.71,223.07a3,3,0,0,0,1.51.46c.83,0,1.23-.42,1.23-.94s-.33-.84-1.17-1.16c-1.14-.4-1.67-1-1.67-1.78a1.94,1.94,0,0,1,2.17-1.84,3.12,3.12,0,0,1,1.55.39L402,219a2.37,2.37,0,0,0-1.28-.37c-.68,0-1.06.39-1.06.86s.38.76,1.2,1.07c1.09.41,1.65,1,1.65,1.9,0,1.1-.86,1.88-2.35,1.88a3.59,3.59,0,0,1-1.77-.43Z" transform="translate(0 0.26)"/><path d="M410.26,224.24l-.09-.79h0a2.36,2.36,0,0,1-1.93.93,1.79,1.79,0,0,1-1.92-1.8c0-1.52,1.35-2.36,3.78-2.34v-.13a1.3,1.3,0,0,0-1.43-1.46,3.08,3.08,0,0,0-1.63.47l-.26-.76a3.93,3.93,0,0,1,2.06-.55c1.93,0,2.39,1.31,2.39,2.57v2.35a8.62,8.62,0,0,0,.11,1.51Zm-.17-3.21c-1.25,0-2.67.2-2.67,1.42a1,1,0,0,0,1.08,1.09,1.56,1.56,0,0,0,1.52-1,1.21,1.21,0,0,0,.07-.37Z" transform="translate(0 0.26)"/><path d="M413,219.65c0-.65,0-1.18-.05-1.7h1l.07,1h0a2.32,2.32,0,0,1,2.08-1.18c.87,0,2.23.52,2.23,2.67v3.76h-1.15v-3.63c0-1-.37-1.86-1.45-1.86a1.7,1.7,0,0,0-1.62,1.71v3.78H413Z" transform="translate(0 0.26)"/><path d="M425.69,215v7.61c0,.56,0,1.19.05,1.62h-1l0-1.09h0a2.33,2.33,0,0,1-2.15,1.23c-1.52,0-2.69-1.28-2.69-3.19,0-2.1,1.29-3.38,2.82-3.38a2.11,2.11,0,0,1,1.9,1h0V215Zm-1.14,5.5a2,2,0,0,0-.06-.48,1.67,1.67,0,0,0-1.65-1.33c-1.18,0-1.88,1-1.88,2.43s.62,2.33,1.86,2.33a1.72,1.72,0,0,0,1.67-1.36,2,2,0,0,0,.06-.5Z" transform="translate(0 0.26)"/><path d="M430.34,220c0-.8,0-1.45,0-2.05h1l.05,1.08h0a2.44,2.44,0,0,1,2.23-1.22c1.52,0,2.67,1.28,2.67,3.19,0,2.27-1.38,3.38-2.86,3.38a2.21,2.21,0,0,1-1.94-1h0v3.42h-1.13Zm1.13,1.68a2.23,2.23,0,0,0,.06.47,1.75,1.75,0,0,0,1.71,1.34c1.21,0,1.91-1,1.91-2.43,0-1.27-.66-2.34-1.87-2.34a1.82,1.82,0,0,0-1.73,1.41,1.85,1.85,0,0,0-.08.47Z" transform="translate(0 0.26)"/><path d="M437.74,215h1.14v9.23h-1.14Z" transform="translate(0 0.26)"/><path d="M446.07,222.52c0,.66,0,1.23.05,1.72h-1l-.06-1h0a2.36,2.36,0,0,1-2.08,1.17c-1,0-2.17-.54-2.17-2.75V218h1.14v3.48c0,1.2.37,2,1.41,2a1.65,1.65,0,0,0,1.5-1,1.59,1.59,0,0,0,.11-.59V218h1.14Z" transform="translate(0 0.26)"/><path d="M453.39,218c0,.45-.05,1-.05,1.73v3.65a3.61,3.61,0,0,1-.9,2.87,3.29,3.29,0,0,1-2.29.76,4,4,0,0,1-2.09-.52l.29-.87a3.51,3.51,0,0,0,1.84.49c1.17,0,2-.61,2-2.2v-.7h0a2.26,2.26,0,0,1-2,1.06,2.81,2.81,0,0,1-2.67-3.07c0-2.13,1.39-3.34,2.83-3.34a2.09,2.09,0,0,1,2,1.09h0l.05-1Zm-1.18,2.48a1.46,1.46,0,0,0-.07-.52,1.64,1.64,0,0,0-1.6-1.21c-1.09,0-1.87.93-1.87,2.38,0,1.24.63,2.26,1.86,2.26a1.68,1.68,0,0,0,1.59-1.17,2.1,2.1,0,0,0,.09-.61Z" transform="translate(0 0.26)"/><path d="M456.43,216.18a.67.67,0,0,1-.72.7.68.68,0,0,1-.69-.7.69.69,0,0,1,.71-.71A.67.67,0,0,1,456.43,216.18Zm-1.27,8.06V218h1.14v6.29Z" transform="translate(0 0.26)"/><path d="M458.2,219.65c0-.65,0-1.18-.05-1.7h1l.07,1h0a2.32,2.32,0,0,1,2.08-1.18c.88,0,2.23.52,2.23,2.67v3.76h-1.15v-3.63c0-1-.37-1.86-1.45-1.86a1.64,1.64,0,0,0-1.54,1.18,1.66,1.66,0,0,0-.07.53v3.78H458.2Z" transform="translate(0 0.26)"/><path d="M465.26,223.07a3,3,0,0,0,1.51.46c.83,0,1.22-.42,1.22-.94s-.32-.84-1.17-1.16c-1.13-.4-1.66-1-1.66-1.78a1.94,1.94,0,0,1,2.17-1.84,3.18,3.18,0,0,1,1.55.39l-.29.83a2.41,2.41,0,0,0-1.29-.37c-.67,0-1.05.39-1.05.86s.38.76,1.2,1.07c1.09.41,1.65,1,1.65,1.9,0,1.1-.86,1.88-2.36,1.88a3.62,3.62,0,0,1-1.77-.43Z" transform="translate(0 0.26)"/><path d="M469.68,225.84a18.12,18.12,0,0,0,.78-3.11l1.27-.13a15.44,15.44,0,0,1-1.23,3.16Z" transform="translate(0 0.26)"/><path d="M476.32,218l.84,3.2c.18.7.35,1.35.46,2h0c.14-.64.35-1.31.56-2l1-3.21h1l1,3.15c.23.75.41,1.41.55,2.05h0c.11-.64.28-1.3.48-2l.9-3.16h1.13l-2,6.29h-1l-1-3c-.22-.7-.4-1.33-.56-2.07h0a19,19,0,0,1-.57,2.08l-1,3h-1l-1.9-6.29Z" transform="translate(0 0.26)"/><path d="M486.71,216.18a.71.71,0,0,1-1.42,0,.7.7,0,0,1,.72-.71A.67.67,0,0,1,486.71,216.18Zm-1.27,8.06V218h1.14v6.29Z" transform="translate(0 0.26)"/><path d="M489.86,216.14V218h1.63v.87h-1.63v3.39c0,.78.22,1.23.85,1.23a2.58,2.58,0,0,0,.67-.08l.05.86a2.82,2.82,0,0,1-1,.15,1.59,1.59,0,0,1-1.24-.48,2.37,2.37,0,0,1-.44-1.64v-3.43h-1V218h1v-1.51Z" transform="translate(0 0.26)"/><path d="M492.78,215h1.14v3.93h0a2.13,2.13,0,0,1,.82-.81,2.41,2.41,0,0,1,1.17-.32c.85,0,2.2.52,2.2,2.69v3.74H497v-3.61c0-1-.37-1.88-1.45-1.88A1.65,1.65,0,0,0,494,219.9a1.46,1.46,0,0,0-.08.54v3.8h-1.14Z" transform="translate(0 0.26)"/><path d="M506.24,224.24l-.1-.79h0a2.37,2.37,0,0,1-1.93.93,1.79,1.79,0,0,1-1.92-1.8c0-1.52,1.35-2.36,3.78-2.34v-.13a1.3,1.3,0,0,0-1.43-1.46,3.14,3.14,0,0,0-1.64.47l-.26-.76a4,4,0,0,1,2.07-.55c1.92,0,2.39,1.31,2.39,2.57v2.35a8.62,8.62,0,0,0,.11,1.51Zm-.17-3.21c-1.25,0-2.67.2-2.67,1.42a1,1,0,0,0,1.08,1.09,1.56,1.56,0,0,0,1.52-1,1.21,1.21,0,0,0,.07-.37Z" transform="translate(0 0.26)"/><path d="M160.9,239.24v-5.42H160V233h.89v-.3a3,3,0,0,1,.72-2.2,2.22,2.22,0,0,1,1.54-.58,2.66,2.66,0,0,1,1,.18l-.15.88a1.88,1.88,0,0,0-.73-.14c-1,0-1.22.86-1.22,1.82V233h1.52v.87H162v5.42Z" transform="translate(0 0.26)"/><path d="M170.1,236a3.07,3.07,0,0,1-3.13,3.34,3,3,0,0,1-3-3.23,3.07,3.07,0,0,1,3.12-3.34A3,3,0,0,1,170.1,236Zm-5,.07c0,1.38.79,2.42,1.91,2.42s1.91-1,1.91-2.45c0-1.06-.53-2.42-1.89-2.42S165.11,234.91,165.11,236.11Z" transform="translate(0 0.26)"/><path d="M176,239a4.32,4.32,0,0,1-1.81.36,3,3,0,0,1-3.13-3.21,3.19,3.19,0,0,1,3.38-3.34,3.92,3.92,0,0,1,1.58.32l-.26.89a2.59,2.59,0,0,0-1.32-.3,2.37,2.37,0,0,0,0,4.73,3.26,3.26,0,0,0,1.4-.31Z" transform="translate(0 0.26)"/><path d="M182.63,237.52c0,.66,0,1.23.05,1.72h-1l-.07-1h0a2.36,2.36,0,0,1-2.08,1.17c-1,0-2.17-.54-2.17-2.75V233h1.14v3.48c0,1.2.37,2,1.41,2a1.65,1.65,0,0,0,1.5-1,1.59,1.59,0,0,0,.11-.59V233h1.14Z" transform="translate(0 0.26)"/><path d="M184.37,238.07a3,3,0,0,0,1.51.46c.83,0,1.22-.42,1.22-.94s-.32-.84-1.17-1.16c-1.13-.4-1.66-1-1.66-1.78a1.94,1.94,0,0,1,2.17-1.84,3.12,3.12,0,0,1,1.55.39l-.29.83a2.41,2.41,0,0,0-1.29-.37c-.67,0-1,.39-1,.86s.38.76,1.2,1.07c1.09.41,1.65,1,1.65,1.9,0,1.1-.86,1.88-2.35,1.88a3.59,3.59,0,0,1-1.77-.43Z" transform="translate(0 0.26)"/><path d="M198.13,236a3.07,3.07,0,0,1-3.14,3.34,3,3,0,0,1-3-3.23,3.07,3.07,0,0,1,3.12-3.34A3,3,0,0,1,198.13,236Zm-5,.07c0,1.38.79,2.42,1.91,2.42s1.91-1,1.91-2.45c0-1.06-.54-2.42-1.89-2.42S193.14,234.91,193.14,236.11Z" transform="translate(0 0.26)"/><path d="M199.57,234.65c0-.65,0-1.18,0-1.7h1l.07,1h0a2.32,2.32,0,0,1,2.08-1.18c.87,0,2.23.52,2.23,2.67v3.76h-1.15v-3.63c0-1-.37-1.86-1.45-1.86a1.7,1.7,0,0,0-1.62,1.71v3.78h-1.14Z" transform="translate(0 0.26)"/><path d="M214,239a4.36,4.36,0,0,1-1.81.36,3,3,0,0,1-3.13-3.21,3.19,3.19,0,0,1,3.38-3.34,3.92,3.92,0,0,1,1.58.32l-.26.89a2.59,2.59,0,0,0-1.32-.3,2.37,2.37,0,0,0,0,4.73,3.26,3.26,0,0,0,1.4-.31Z" transform="translate(0 0.26)"/><path d="M215.37,234.91c0-.74,0-1.38-.06-2h1l0,1.23h.06a1.88,1.88,0,0,1,1.74-1.37,1,1,0,0,1,.32,0v1.07a2.21,2.21,0,0,0-.39,0,1.6,1.6,0,0,0-1.53,1.46,2.92,2.92,0,0,0-.05.54v3.35h-1.13Z" transform="translate(0 0.26)"/><path d="M220.12,236.3a2,2,0,0,0,2.16,2.19,4.15,4.15,0,0,0,1.74-.33l.2.82a5.12,5.12,0,0,1-2.1.39A2.92,2.92,0,0,1,219,236.2c0-1.9,1.12-3.39,2.95-3.39,2.06,0,2.6,1.8,2.6,3a3.17,3.17,0,0,1,0,.53Zm3.36-.82a1.64,1.64,0,0,0-1.59-1.86,1.89,1.89,0,0,0-1.75,1.86Z" transform="translate(0 0.26)"/><path d="M229.48,239.24l-.09-.79h0a2.34,2.34,0,0,1-1.92.93,1.79,1.79,0,0,1-1.93-1.8c0-1.52,1.36-2.36,3.79-2.34v-.13a1.3,1.3,0,0,0-1.43-1.46,3.09,3.09,0,0,0-1.64.47l-.26-.76a4,4,0,0,1,2.07-.55c1.92,0,2.39,1.31,2.39,2.57v2.35a8.69,8.69,0,0,0,.1,1.51Zm-.17-3.21c-1.24,0-2.66.2-2.66,1.42a1,1,0,0,0,1.08,1.09,1.56,1.56,0,0,0,1.52-1,1.19,1.19,0,0,0,.06-.37Z" transform="translate(0 0.26)"/><path d="M233.59,231.14V233h1.64v.87h-1.64v3.39c0,.78.22,1.23.86,1.23a2.44,2.44,0,0,0,.66-.08l0,.86a2.82,2.82,0,0,1-1,.15,1.58,1.58,0,0,1-1.23-.48,2.32,2.32,0,0,1-.45-1.64v-3.43h-1V233h1v-1.51Z" transform="translate(0 0.26)"/><path d="M237.79,231.18a.71.71,0,0,1-1.42,0,.7.7,0,0,1,.72-.71A.67.67,0,0,1,237.79,231.18Zm-1.27,8.06V233h1.14v6.29Z" transform="translate(0 0.26)"/><path d="M239.56,234.65c0-.65,0-1.18-.05-1.7h1l.06,1h0a2.31,2.31,0,0,1,2.08-1.18c.87,0,2.22.52,2.22,2.67v3.76h-1.14v-3.63c0-1-.38-1.86-1.46-1.86a1.7,1.7,0,0,0-1.61,1.71v3.78h-1.14Z" transform="translate(0 0.26)"/><path d="M252.19,233c0,.45-.05,1-.05,1.73v3.65a3.61,3.61,0,0,1-.89,2.87A3.33,3.33,0,0,1,249,242a4.06,4.06,0,0,1-2.1-.52l.29-.87a3.58,3.58,0,0,0,1.85.49c1.17,0,2-.61,2-2.2v-.7h0a2.24,2.24,0,0,1-2,1.06,2.82,2.82,0,0,1-2.68-3.07c0-2.13,1.39-3.34,2.83-3.34a2.09,2.09,0,0,1,2,1.09h0l.05-1ZM251,235.43a1.73,1.73,0,0,0-.06-.52,1.66,1.66,0,0,0-1.6-1.21c-1.1,0-1.88.93-1.88,2.38,0,1.24.63,2.26,1.86,2.26a1.67,1.67,0,0,0,1.59-1.17,2.1,2.1,0,0,0,.09-.61Z" transform="translate(0 0.26)"/><path d="M256.8,230h1.14v3.93h0a2.1,2.1,0,0,1,.81-.81,2.44,2.44,0,0,1,1.17-.32c.85,0,2.2.52,2.2,2.69v3.74H261v-3.61c0-1-.38-1.88-1.46-1.88A1.64,1.64,0,0,0,258,234.9a1.28,1.28,0,0,0-.08.54v3.8H256.8Z" transform="translate(0 0.26)"/><path d="M265.28,231.18a.67.67,0,0,1-.72.7.68.68,0,0,1-.69-.7.69.69,0,0,1,.71-.71A.67.67,0,0,1,265.28,231.18ZM264,239.24V233h1.14v6.29Z" transform="translate(0 0.26)"/><path d="M272.47,233c0,.45-.05,1-.05,1.73v3.65a3.57,3.57,0,0,1-.9,2.87,3.28,3.28,0,0,1-2.28.76,4.06,4.06,0,0,1-2.1-.52l.29-.87a3.58,3.58,0,0,0,1.85.49c1.17,0,2-.61,2-2.2v-.7h0a2.24,2.24,0,0,1-2,1.06,2.81,2.81,0,0,1-2.68-3.07c0-2.13,1.39-3.34,2.83-3.34a2.09,2.09,0,0,1,2,1.09h0l.05-1Zm-1.18,2.48a1.73,1.73,0,0,0-.06-.52,1.66,1.66,0,0,0-1.6-1.21c-1.1,0-1.88.93-1.88,2.38,0,1.24.63,2.26,1.86,2.26a1.67,1.67,0,0,0,1.59-1.17,2.1,2.1,0,0,0,.09-.61Z" transform="translate(0 0.26)"/><path d="M274.32,230h1.14v3.93h0a2.13,2.13,0,0,1,.82-.81,2.41,2.41,0,0,1,1.17-.32c.84,0,2.2.52,2.2,2.69v3.74h-1.15v-3.61c0-1-.38-1.88-1.45-1.88a1.64,1.64,0,0,0-1.54,1.15,1.46,1.46,0,0,0-.08.54v3.8h-1.14Z" transform="translate(0 0.26)"/><path d="M284.19,235.3v.85H281v-.85Z" transform="translate(0 0.26)"/><path d="M290.05,238.27h0a2.24,2.24,0,0,1-2,1.11c-1.47,0-2.67-1.27-2.67-3.18,0-2.35,1.52-3.39,2.85-3.39a2.07,2.07,0,0,1,1.94,1.09h0l0-1h1.08c0,.53,0,1.08,0,1.73v7.14h-1.14Zm0-2.77A1.86,1.86,0,0,0,290,235a1.67,1.67,0,0,0-1.64-1.3c-1.18,0-1.9,1-1.9,2.41,0,1.25.6,2.34,1.86,2.34a1.7,1.7,0,0,0,1.64-1.24,2,2,0,0,0,.09-.55Z" transform="translate(0 0.26)"/><path d="M298.34,237.52c0,.66,0,1.23.05,1.72h-1l-.06-1h0a2.36,2.36,0,0,1-2.08,1.17c-1,0-2.17-.54-2.17-2.75V233h1.14v3.48c0,1.2.37,2,1.41,2a1.65,1.65,0,0,0,1.5-1,1.59,1.59,0,0,0,.11-.59V233h1.14Z" transform="translate(0 0.26)"/><path d="M303.72,239.24l-.09-.79h0a2.34,2.34,0,0,1-1.92.93,1.79,1.79,0,0,1-1.92-1.8c0-1.52,1.35-2.36,3.78-2.34v-.13a1.3,1.3,0,0,0-1.43-1.46,3.09,3.09,0,0,0-1.64.47l-.26-.76a4,4,0,0,1,2.07-.55c1.92,0,2.39,1.31,2.39,2.57v2.35a9.8,9.8,0,0,0,.1,1.51Zm-.16-3.21c-1.25,0-2.67.2-2.67,1.42a1,1,0,0,0,1.08,1.09,1.56,1.56,0,0,0,1.52-1,1.21,1.21,0,0,0,.07-.37Z" transform="translate(0 0.26)"/><path d="M306.51,230h1.14v9.23h-1.14Z" transform="translate(0 0.26)"/><path d="M310.85,231.18a.71.71,0,0,1-1.42,0,.7.7,0,0,1,.72-.71A.67.67,0,0,1,310.85,231.18Zm-1.28,8.06V233h1.15v6.29Z" transform="translate(0 0.26)"/><path d="M314,231.14V233h1.64v.87H314v3.39c0,.78.22,1.23.86,1.23a2.44,2.44,0,0,0,.66-.08l.06.86a2.85,2.85,0,0,1-1,.15,1.58,1.58,0,0,1-1.23-.48,2.32,2.32,0,0,1-.44-1.64v-3.43h-1V233h1v-1.51Z" transform="translate(0 0.26)"/><path d="M317.45,233l1.38,3.72c.14.41.3.91.4,1.28h0c.12-.37.25-.85.4-1.31l1.25-3.69h1.21l-1.72,4.48c-.82,2.16-1.37,3.27-2.15,3.94a3,3,0,0,1-1.41.74l-.29-1a3,3,0,0,0,1-.56,3.45,3.45,0,0,0,1-1.27.92.92,0,0,0,.09-.27,1,1,0,0,0-.08-.3L316.2,233Z" transform="translate(0 0.26)"/><path d="M321.91,240.84a18.12,18.12,0,0,0,.78-3.11l1.27-.13a15.44,15.44,0,0,1-1.23,3.16Z" transform="translate(0 0.26)"/><path d="M329.37,231.18a.71.71,0,0,1-1.41,0,.69.69,0,0,1,.71-.71A.67.67,0,0,1,329.37,231.18Zm-1.27,8.06V233h1.14v6.29Z" transform="translate(0 0.26)"/><path d="M331.14,234.65c0-.65,0-1.18-.05-1.7h1l.07,1h0a2.32,2.32,0,0,1,2.08-1.18c.87,0,2.23.52,2.23,2.67v3.76h-1.15v-3.63c0-1-.37-1.86-1.45-1.86a1.7,1.7,0,0,0-1.62,1.71v3.78h-1.14Z" transform="translate(0 0.26)"/><path d="M339.68,231.14V233h1.64v.87h-1.64v3.39c0,.78.22,1.23.86,1.23a2.44,2.44,0,0,0,.66-.08l.05.86a2.82,2.82,0,0,1-1,.15,1.58,1.58,0,0,1-1.23-.48,2.32,2.32,0,0,1-.45-1.64v-3.43h-1V233h1v-1.51Z" transform="translate(0 0.26)"/><path d="M343.17,236.3a2,2,0,0,0,2.15,2.19,4.2,4.2,0,0,0,1.75-.33l.19.82a5.11,5.11,0,0,1-2.09.39,2.92,2.92,0,0,1-3.1-3.17c0-1.9,1.12-3.39,3-3.39,2.05,0,2.59,1.8,2.59,3,0,.23,0,.42,0,.53Zm3.35-.82a1.64,1.64,0,0,0-1.59-1.86,1.9,1.9,0,0,0-1.75,1.86Z" transform="translate(0 0.26)"/><path d="M349,234.91c0-.74,0-1.38-.05-2h1l0,1.23h.05a1.89,1.89,0,0,1,1.74-1.37,1.15,1.15,0,0,1,.33,0v1.07a2.21,2.21,0,0,0-.39,0,1.61,1.61,0,0,0-1.54,1.46,4.15,4.15,0,0,0-.05.54v3.35H349Z" transform="translate(0 0.26)"/><path d="M356.71,239.24l-.09-.79h0a2.35,2.35,0,0,1-1.92.93,1.79,1.79,0,0,1-1.93-1.8c0-1.52,1.35-2.36,3.79-2.34v-.13a1.3,1.3,0,0,0-1.43-1.46,3.09,3.09,0,0,0-1.64.47l-.26-.76a4,4,0,0,1,2.07-.55c1.92,0,2.39,1.31,2.39,2.57v2.35a8.69,8.69,0,0,0,.1,1.51Zm-.17-3.21c-1.25,0-2.66.2-2.66,1.42a1,1,0,0,0,1.08,1.09,1.56,1.56,0,0,0,1.52-1,1.19,1.19,0,0,0,.06-.37Z" transform="translate(0 0.26)"/><path d="M364,239a4.32,4.32,0,0,1-1.81.36,3,3,0,0,1-3.13-3.21,3.2,3.2,0,0,1,3.38-3.34,3.92,3.92,0,0,1,1.58.32l-.25.89a2.66,2.66,0,0,0-1.33-.3,2.37,2.37,0,0,0,0,4.73,3.26,3.26,0,0,0,1.4-.31Z" transform="translate(0 0.26)"/><path d="M366.86,231.14V233h1.64v.87h-1.64v3.39c0,.78.22,1.23.86,1.23a2.58,2.58,0,0,0,.67-.08l.05.86a2.85,2.85,0,0,1-1,.15,1.58,1.58,0,0,1-1.23-.48,2.32,2.32,0,0,1-.44-1.64v-3.43h-1V233h1v-1.51Z" transform="translate(0 0.26)"/><path d="M371.06,231.18a.71.71,0,0,1-1.41,0,.69.69,0,0,1,.71-.71A.67.67,0,0,1,371.06,231.18Zm-1.27,8.06V233h1.14v6.29Z" transform="translate(0 0.26)"/><path d="M373.27,233l1.24,3.53a16.3,16.3,0,0,1,.5,1.62h0c.15-.52.33-1,.54-1.62l1.22-3.53H378l-2.46,6.29h-1.1L372.05,233Z" transform="translate(0 0.26)"/><path d="M379.59,236.3a2,2,0,0,0,2.16,2.19,4.15,4.15,0,0,0,1.74-.33l.2.82a5.2,5.2,0,0,1-2.1.39,2.92,2.92,0,0,1-3.09-3.17c0-1.9,1.12-3.39,2.95-3.39,2.05,0,2.6,1.8,2.6,3a4.82,4.82,0,0,1,0,.53Zm3.36-.82a1.64,1.64,0,0,0-1.59-1.86,1.91,1.91,0,0,0-1.76,1.86Z" transform="translate(0 0.26)"/><path d="M388.68,233l.83,3.2c.18.7.35,1.35.47,2h0c.14-.64.35-1.31.56-2l1-3.21h1l1,3.15c.23.75.42,1.41.56,2.05h0a17.38,17.38,0,0,1,.48-2l.9-3.16h1.13l-2,6.29h-1l-1-3a19.66,19.66,0,0,1-.56-2.07h0a17,17,0,0,1-.57,2.08l-1,3h-1l-1.9-6.29Z" transform="translate(0 0.26)"/><path d="M398.3,236.3a2,2,0,0,0,2.16,2.19,4.15,4.15,0,0,0,1.74-.33l.19.82a5.11,5.11,0,0,1-2.09.39,2.91,2.91,0,0,1-3.09-3.17c0-1.9,1.11-3.39,3-3.39,2,0,2.6,1.8,2.6,3a4.82,4.82,0,0,1,0,.53Zm3.35-.82a1.63,1.63,0,0,0-1.58-1.86,1.9,1.9,0,0,0-1.76,1.86Z" transform="translate(0 0.26)"/><path d="M404.12,239.24c0-.43.05-1.06.05-1.62V230h1.13v4h0a2.34,2.34,0,0,1,2.15-1.15c1.56,0,2.66,1.3,2.65,3.21,0,2.25-1.42,3.36-2.82,3.36a2.25,2.25,0,0,1-2.11-1.18h0l-.05,1Zm1.18-2.52a1.93,1.93,0,0,0,.06.42,1.75,1.75,0,0,0,1.71,1.33c1.2,0,1.91-1,1.91-2.41,0-1.27-.65-2.34-1.87-2.34a1.82,1.82,0,0,0-1.74,1.4,2,2,0,0,0-.07.47Z" transform="translate(0 0.26)"/><path d="M411.41,238.07a3,3,0,0,0,1.51.46c.83,0,1.22-.42,1.22-.94s-.32-.84-1.17-1.16c-1.13-.4-1.66-1-1.66-1.78a1.94,1.94,0,0,1,2.17-1.84,3.12,3.12,0,0,1,1.55.39l-.29.83a2.37,2.37,0,0,0-1.28-.37c-.68,0-1.06.39-1.06.86s.38.76,1.2,1.07c1.09.41,1.65,1,1.65,1.9,0,1.1-.86,1.88-2.35,1.88a3.59,3.59,0,0,1-1.77-.43Z" transform="translate(0 0.26)"/><path d="M418,231.18a.71.71,0,0,1-1.41,0,.69.69,0,0,1,.71-.71A.67.67,0,0,1,418,231.18Zm-1.27,8.06V233h1.14v6.29Z" transform="translate(0 0.26)"/><path d="M421.14,231.14V233h1.64v.87h-1.64v3.39c0,.78.22,1.23.86,1.23a2.44,2.44,0,0,0,.66-.08l0,.86a2.82,2.82,0,0,1-1,.15,1.62,1.62,0,0,1-1.24-.48,2.37,2.37,0,0,1-.44-1.64v-3.43h-1V233h1v-1.51Z" transform="translate(0 0.26)"/><path d="M424.62,236.3a2,2,0,0,0,2.16,2.19,4.15,4.15,0,0,0,1.74-.33l.2.82a5.2,5.2,0,0,1-2.1.39,2.92,2.92,0,0,1-3.09-3.17c0-1.9,1.12-3.39,3-3.39,2.06,0,2.6,1.8,2.6,3a3.17,3.17,0,0,1,0,.53Zm3.36-.82a1.64,1.64,0,0,0-1.59-1.86,1.91,1.91,0,0,0-1.76,1.86Z" transform="translate(0 0.26)"/><path d="M430.34,238.07a3,3,0,0,0,1.51.46c.83,0,1.22-.42,1.22-.94s-.32-.84-1.17-1.16c-1.13-.4-1.66-1-1.66-1.78a1.94,1.94,0,0,1,2.17-1.84,3.15,3.15,0,0,1,1.55.39l-.29.83a2.41,2.41,0,0,0-1.29-.37c-.67,0-1.05.39-1.05.86s.38.76,1.2,1.07c1.09.41,1.65,1,1.65,1.9,0,1.1-.86,1.88-2.36,1.88a3.55,3.55,0,0,1-1.76-.43Z" transform="translate(0 0.26)"/><path d="M435.23,238.56a.76.76,0,0,1,.78-.81.75.75,0,0,1,.77.81.78.78,0,1,1-1.55,0Z" transform="translate(0 0.26)"/><circle class="cls-3" cx="39.86" cy="288.27" r="16.69"/><path class="cls-2" d="M44.75,298H35a5.07,5.07,0,0,1-5.06-5.06v-9.77A5.07,5.07,0,0,1,35,278.06h9.78a5.06,5.06,0,0,1,5,5.06v9.77A5.06,5.06,0,0,1,44.75,298ZM35,279.82a3.3,3.3,0,0,0-3.3,3.3v9.77a3.3,3.3,0,0,0,3.3,3.3h9.78a3.3,3.3,0,0,0,3.29-3.3v-9.77a3.3,3.3,0,0,0-3.29-3.3Z" transform="translate(0 0.26)"/><path class="cls-2" d="M39.79,289.46a3.9,3.9,0,1,1,3.9-3.9A3.91,3.91,0,0,1,39.79,289.46Zm0-6a2.14,2.14,0,1,0,2.14,2.14A2.14,2.14,0,0,0,39.79,283.42Z" transform="translate(0 0.26)"/><rect class="cls-2" x="34.68" y="289.41" width="10.36" height="1.76"/><rect class="cls-2" x="34.68" y="292.86" width="10.36" height="1.76"/><path class="cls-16" d="M80.86,350.69,78.58,353a.68.68,0,0,0,0,1l1.27,1.27L83.07,352l-1.26-1.26A.66.66,0,0,0,80.86,350.69Z" transform="translate(0 0.26)"/><path class="cls-16" d="M83.07,352l-10.19,10.2h0a2.17,2.17,0,0,0,3.07,0L83.07,355a2.18,2.18,0,0,0,0-3.08Z" transform="translate(0 0.26)"/><path class="cls-16" d="M73.89,357.65l-2.28,2.28a.68.68,0,0,0,0,.95l1.27,1.27,3.22-3.23-1.26-1.27A.68.68,0,0,0,73.89,357.65Z" transform="translate(0 0.26)"/><rect class="cls-3" x="126.8" y="287.66" width="96.45" height="1.6"/><rect class="cls-3" x="440.08" y="287.05" width="96.45" height="1.6"/><path class="cls-16" d="M83.54,308.05H73a.31.31,0,0,0-.19.56l5.44,4.3,5.45-4.3A.31.31,0,0,0,83.54,308.05Z" transform="translate(0 0.26)"/><path class="cls-16" d="M78.29,313.72l-6.14-4.86v8.61a1.12,1.12,0,0,0,1.11,1.12H83.32a1.12,1.12,0,0,0,1.12-1.12v-8.61Z" transform="translate(0 0.26)"/><path class="cls-16" d="M72.74,395.91v8h10.2v-8Zm4.67,6.57H75.23V400.3h2.18Zm0-2.93H75.23v-2.18h2.18Zm3.07,2.93H78.3V400.3h2.18Zm0-2.93H78.3v-2.18h2.18Z" transform="translate(0 0.26)"/><polygon class="cls-16" points="71.55 395.35 84.16 395.35 77.86 389.93 71.55 395.35"/><text class="cls-17" transform="translate(108.45 319.06)"><tspan class="cls-18">w</tspan><tspan x="8.78" y="0">asim1438235@</tspan><tspan class="cls-19" x="84.07" y="0">g</tspan><tspan x="90.71" y="0">mai</tspan><tspan class="cls-20" x="109.31" y="0">l</tspan><tspan x="112.02" y="0">.</tspan><tspan class="cls-19" x="114.5" y="0">c</tspan><tspan x="119.81" y="0">om</tspan></text><text class="cls-17" transform="translate(108.45 404.02)"><tspan class="cls-21">M</tspan><tspan class="cls-22" x="9.68" y="0">uzaffa</tspan><tspan class="cls-23" x="40" y="0">r</tspan><tspan x="43.82" y="0">ga</tspan><tspan class="cls-24" x="56.32" y="0">r</tspan><tspan x="60.29" y="0">h, 32400 </tspan></text><text class="cls-25" transform="translate(324.32 598.2)"><tspan class="cls-26">h</tspan><tspan x="4.86" y="0">ttps://</tspan><tspan class="cls-27" x="27.08" y="0">ww</tspan><tspan class="cls-28" x="40.27" y="0">w</tspan><tspan x="46.42" y="0">.behan</tspan><tspan class="cls-29" x="71.72" y="0">c</tspan><tspan class="cls-30" x="75.62" y="0">e</tspan><tspan x="79.93" y="0">.net/j</tspan><tspan class="cls-31" x="99.15" y="0">a</tspan><tspan class="cls-32" x="103.33" y="0">v</tspan><tspan x="107.49" y="0">edsom</tspan><tspan class="cls-33" x="132.57" y="0">r</tspan><tspan x="135.36" y="0">oo1</tspan></text><text class="cls-25" transform="translate(324.32 616.61)"><tspan class="cls-26">h</tspan><tspan x="4.86" y="0">ttps://</tspan><tspan class="cls-27" x="27.08" y="0">ww</tspan><tspan class="cls-28" x="40.27" y="0">w</tspan><tspan x="46.42" y="0">.insta</tspan><tspan class="cls-29" x="65.87" y="0">g</tspan><tspan class="cls-34" x="70.74" y="0">r</tspan><tspan x="73.58" y="0">am.</tspan><tspan class="cls-35" x="87.01" y="0">c</tspan><tspan x="90.91" y="0">om/j</tspan><tspan class="cls-31" x="108.27" y="0">a</tspan><tspan class="cls-32" x="112.45" y="0">v</tspan><tspan x="116.61" y="0">ed_som</tspan><tspan class="cls-33" x="146.1" y="0">r</tspan><tspan x="148.89" y="0">oo_/</tspan></text><circle class="cls-3" cx="39.65" cy="465.82" r="16.48"/><path class="cls-2" d="M50.68,463.05a1.1,1.1,0,0,0-.61-1.88l-5.94-.87a1.1,1.1,0,0,1-.83-.6l-2.66-5.38a1.09,1.09,0,0,0-1-.62,1.11,1.11,0,0,0-1,.62L36,459.7a1.1,1.1,0,0,1-.83.6l-5.94.87a1.1,1.1,0,0,0-.61,1.88l4.29,4.19a1.09,1.09,0,0,1,.32,1l-1,5.92a1.1,1.1,0,0,0,1.08,1.29,1.11,1.11,0,0,0,.52-.13l5.31-2.79a1,1,0,0,1,.51-.13,1.08,1.08,0,0,1,.52.13l5.31,2.79a1.07,1.07,0,0,0,.51.13,1.11,1.11,0,0,0,1.09-1.29l-1-5.92a1.09,1.09,0,0,1,.32-1Zm-5.41,3.05a2.7,2.7,0,0,0-.77,2.38l.85,4.95-4.45-2.34a2.68,2.68,0,0,0-1.25-.3,2.74,2.74,0,0,0-1.25.3L34,473.43l.85-4.95A2.7,2.7,0,0,0,34,466.1l-3.6-3.51,5-.72a2.7,2.7,0,0,0,2-1.47l2.22-4.51,2.23,4.51a2.69,2.69,0,0,0,2,1.47l5,.72Z" transform="translate(0 0.26)"/><rect class="cls-3" x="125.59" y="464.12" width="95.26" height="1.58"/><text class="cls-17" transform="translate(65.81 469.19)">Skills</text><text class="cls-17" transform="translate(64.8 292.66)">Contact</text><text class="cls-36" transform="translate(71.42 492.24)">HTML<tspan x="0" y="31">CSS</tspan><tspan x="0" y="62">Javascript</tspan><tspan x="0" y="93">React</tspan><tspan x="0" y="124">Next js</tspan><tspan x="0" y="155">HTML and XML</tspan><tspan x="0" y="186">Responsive Web Design</tspan><tspan x="0" y="217">Front-End Development</tspan></text><text class="cls-37" transform="translate(318.89 292.05)"><tspan class="cls-38">W</tspan><tspan x="9.76" y="0">o</tspan><tspan class="cls-24" x="16.34" y="0">r</tspan><tspan class="cls-39" x="20.32" y="0">k Expe</tspan><tspan class="cls-24" x="52.79" y="0">r</tspan><tspan class="cls-39" x="56.76" y="0">ien</tspan><tspan class="cls-19" x="72.24" y="0">c</tspan><tspan x="77.54" y="0">e:</tspan></text><text class="cls-40" y="0.26"><tspan class="cls-41" x="318.89" y="322.24">I</tspan><tspan x="321.38" y="322.24">ma</tspan><tspan class="cls-42" x="334.54" y="322.24">g</tspan><tspan x="340.07" y="322.24">inmaker - </tspan><tspan class="cls-43" x="381.39" y="322.24">M</tspan><tspan x="389.47" y="322.24">uzaffa</tspan><tspan class="cls-44" x="414.73" y="322.24">r</tspan><tspan x="417.91" y="322.24">ga</tspan><tspan class="cls-45" x="428.32" y="322.24">r</tspan><tspan x="431.63" y="322.24">h, </tspan><tspan class="cls-46" x="441.37" y="322.24">P</tspan><tspan x="446.54" y="322.24">unja</tspan><tspan class="cls-47" x="464.85" y="322.24">b</tspan><tspan class="cls-48" x="470.3" y="322.24">, </tspan><tspan class="cls-49" x="474.49" y="322.24">P</tspan><tspan class="cls-48" x="479.55" y="322.24">a</tspan><tspan class="cls-50" x="484.37" y="322.24">k</tspan><tspan x="489.23" y="322.24">istan</tspan><tspan class="cls-51" x="318.89" y="334.24">W</tspan><tspan x="327.02" y="334.24">eb </tspan><tspan class="cls-52" x="339.84" y="334.24">D</tspan><tspan x="346.54" y="334.24">e</tspan><tspan class="cls-53" x="351.55" y="334.24">v</tspan><tspan x="356.26" y="334.24">eloper Janua</tspan><tspan class="cls-54" x="409.6" y="334.24">r</tspan><tspan x="413.12" y="334.24">y 2024 - </tspan><tspan class="cls-55" x="447.78" y="334.24">A</tspan><tspan x="453.78" y="334.24">ugust 2024</tspan><tspan class="cls-51" x="318.89" y="370.24">W</tspan><tspan x="327.02" y="370.24">o</tspan><tspan class="cls-45" x="332.51" y="370.24">r</tspan><tspan class="cls-56" x="335.82" y="370.24">k with a </tspan><tspan class="cls-42" x="370.25" y="370.24">t</tspan><tspan x="373.5" y="370.24">eam and built cumunic</tspan><tspan class="cls-57" x="469.45" y="370.24">a</tspan><tspan class="cls-56" x="474.23" y="370.24">tion s</tspan><tspan class="cls-50" x="497" y="370.24">k</tspan><tspan x="501.86" y="370.24">ills</tspan><tspan x="318.89" y="382.24">and </tspan><tspan class="cls-58" x="337.02" y="382.24">w</tspan><tspan x="344.28" y="382.24">o</tspan><tspan class="cls-45" x="349.77" y="382.24">r</tspan><tspan x="353.08" y="382.24">k in st</tspan><tspan class="cls-45" x="377.17" y="382.24">r</tspan><tspan x="380.48" y="382.24">i</tspan><tspan class="cls-59" x="382.81" y="382.24">c</tspan><tspan x="387.43" y="382.24">t deadlines</tspan><tspan class="cls-60" x="318.89" y="406.24">C</tspan><tspan class="cls-48" x="324.58" y="406.24">ommunic</tspan><tspan class="cls-61" x="364.63" y="406.24">a</tspan><tspan class="cls-42" x="369.41" y="406.24">t</tspan><tspan x="372.66" y="406.24">e with desi</tspan><tspan class="cls-62" x="417.42" y="406.24">g</tspan><tspan x="422.94" y="406.24">ners and get fi</tspan><tspan class="cls-42" x="482.24" y="406.24">g</tspan><tspan x="487.77" y="406.24">ma </tspan><tspan x="318.89" y="418.24">desi</tspan><tspan class="cls-62" x="335.84" y="418.24">g</tspan><tspan x="341.37" y="418.24">n f</tspan><tspan class="cls-53" x="351.96" y="418.24">r</tspan><tspan x="355.13" y="418.24">om them and built </tspan><tspan class="cls-58" x="434.86" y="418.24">w</tspan><tspan x="442.12" y="418.24">ebsi</tspan><tspan class="cls-42" x="459.12" y="418.24">t</tspan><tspan x="462.37" y="418.24">e</tspan><tspan class="cls-63" x="467.38" y="418.24">s</tspan><tspan x="471.23" y="418.24">.</tspan></text><circle class="cls-3" cx="310.71" cy="318.15" r="2.07"/><circle class="cls-3" cx="310.71" cy="367.56" r="2.07"/><circle class="cls-3" cx="310.71" cy="402.52" r="2.07"/><text class="cls-64" transform="translate(324.32 479.07)"><tspan class="cls-65">E</tspan><tspan class="cls-39" x="5.86" y="0">duc</tspan><tspan class="cls-18" x="24.61" y="0">a</tspan><tspan x="30.35" y="0">tion:</tspan></text><text class="cls-66" y="0.26"><tspan x="324.32" y="500.88" xml:space="preserve">FSC  </tspan><tspan class="cls-67"><tspan class="cls-68" x="324.32" y="515.28">F</tspan><tspan class="cls-69" x="329.85" y="515.28">r</tspan><tspan x="333.66" y="515.28">om DG KHAN B</tspan><tspan class="cls-70" x="409.7" y="515.28">O</tspan><tspan x="417.8" y="515.28">ARD 2019</tspan></tspan></text><text class="cls-64" transform="translate(323.22 682.13)">Languages:</text><text class="cls-37" transform="translate(323.22 703.48)">English </text><text class="cls-37" transform="translate(378.06 705.12)">U<tspan class="cls-69" x="7.76" y="0">r</tspan><tspan class="cls-39" x="11.57" y="0">du/</tspan><tspan class="cls-71" x="29.06" y="0">H</tspan><tspan x="37.01" y="0">indi</tspan></text><text class="cls-72" transform="translate(455.69 703.53)">P<tspan class="cls-73" x="6.2" y="0">unjabi</tspan></text><text class="cls-64" transform="translate(324.32 577.51)"><tspan class="cls-74">P</tspan><tspan x="6.08" y="0">o</tspan><tspan class="cls-75" x="12.67" y="0">r</tspan><tspan x="16.88" y="0">t</tspan><tspan class="cls-76" x="20.86" y="0">f</tspan><tspan x="24.2" y="0">olio:</tspan></text><text y="0.26"/><text class="cls-77" transform="translate(110.34 362.85) scale(0.83 1)">03401438235</text><text y="0.26"/></svg>